<svg width="110" height="110" viewBox="0 0 110 110" fill="none" xmlns="http://www.w3.org/2000/svg">
<path d="M78.6156 17.1875H76.0719C74.1328 17.1965 72.2757 17.9709 70.9045 19.342C69.5334 20.7132 68.759 22.5703 68.75 24.5094V58.4375C68.75 59.3492 69.1122 60.2235 69.7568 60.8682C70.4015 61.5128 71.2758 61.875 72.1875 61.875C73.0992 61.875 73.9735 61.5128 74.6182 60.8682C75.2628 60.2235 75.625 59.3492 75.625 58.4375V24.5094C75.625 24.3909 75.6721 24.2772 75.7559 24.1934C75.8397 24.1096 75.9534 24.0625 76.0719 24.0625H78.6156C78.7341 24.0625 78.8478 24.1096 78.9316 24.1934C79.0154 24.2772 79.0625 24.3909 79.0625 24.5094V68.3031C79.0625 68.4216 79.0154 68.5353 78.9316 68.6191C78.8478 68.7029 78.7341 68.75 78.6156 68.75H76.0719L27.5 55.7906V36.9875L61.875 27.5C62.7867 27.263 63.5669 26.6735 64.0439 25.8612C64.521 25.0489 64.6558 24.0804 64.4188 23.1687C64.1817 22.2571 63.5922 21.4769 62.78 20.9998C61.9677 20.5228 60.9992 20.388 60.0875 20.625L23.5813 30.9375H14.1969C12.2578 30.9465 10.4007 31.7209 9.02952 33.092C7.65835 34.4632 6.88404 36.3203 6.875 38.2594V54.5531C6.88404 56.4922 7.65835 58.3493 9.02952 59.7205C10.4007 61.0916 12.2578 61.866 14.1969 61.875H14.4375L20.625 90.1312C20.7996 90.9067 21.2376 91.5976 21.8643 92.0865C22.4911 92.5754 23.2679 92.8319 24.0625 92.8125H34.375C34.8977 92.8253 35.4165 92.7188 35.8918 92.5009C36.3672 92.283 36.7865 91.9596 37.118 91.5552C37.4495 91.1508 37.6843 90.6761 37.8047 90.1672C37.925 89.6584 37.9277 89.1288 37.8125 88.6188L32.3125 64.1781L74.7312 75.625H75.625H78.6156C80.5547 75.616 82.4118 74.8416 83.783 73.4705C85.1541 72.0993 85.9285 70.2422 85.9375 68.3031V24.5094C85.9285 22.5703 85.1541 20.7132 83.783 19.342C82.4118 17.9709 80.5547 17.1965 78.6156 17.1875ZM13.75 38.2594C13.75 38.1409 13.7971 38.0272 13.8809 37.9434C13.9647 37.8596 14.0784 37.8125 14.1969 37.8125H20.625V55H14.1969C14.0784 55 13.9647 54.9529 13.8809 54.8691C13.7971 54.7853 13.75 54.6716 13.75 54.5531V38.2594ZM24.8187 62.6312L30.0781 85.9375H26.6406L21.4844 61.875H23.6156L24.8187 62.1844C24.8361 62.3328 24.8361 62.4828 24.8187 62.6312Z" fill="black"/>
<path d="M94.2907 32.4153C93.8821 32.2212 93.4394 32.1095 92.9876 32.0865C92.5359 32.0635 92.0841 32.1297 91.658 32.2813C91.2318 32.4329 90.8397 32.667 90.5041 32.9702C90.1684 33.2733 89.8957 33.6396 89.7016 34.0481C89.5075 34.4567 89.3957 34.8994 89.3727 35.3512C89.3497 35.8029 89.416 36.2547 89.5676 36.6808C89.7192 37.107 89.9533 37.4991 90.2564 37.8348C90.5596 38.1704 90.9259 38.4431 91.3344 38.6372C92.8061 39.3332 94.0497 40.4329 94.9207 41.8082C95.7917 43.1836 96.254 44.778 96.254 46.406C96.254 48.0339 95.7917 49.6283 94.9207 51.0037C94.0497 52.379 92.8061 53.4787 91.3344 54.1747C90.6357 54.5131 90.072 55.0781 89.7353 55.7776C89.3986 56.4771 89.3086 57.2701 89.4799 58.0273C89.6513 58.7845 90.074 59.4614 90.6791 59.9478C91.2842 60.4342 92.0362 60.7014 92.8125 60.706C93.3209 60.7023 93.8235 60.5972 94.2907 60.3966C96.9323 59.1355 99.1629 57.1523 100.724 54.6764C102.286 52.2005 103.115 49.3332 103.115 46.406C103.115 43.4788 102.286 40.6114 100.724 38.1355C99.1629 35.6596 96.9323 33.6764 94.2907 32.4153Z" fill="#DE9271"/>
</svg>
