<svg width="100" height="100" viewBox="0 0 100 100" fill="none" xmlns="http://www.w3.org/2000/svg">
<path d="M26.1875 36.4059C26.4809 36.749 26.8452 37.0244 27.2551 37.2132C27.6651 37.402 28.1112 37.4997 28.5625 37.4997C29.037 37.4782 29.5003 37.3488 29.9172 37.1213C30.3342 36.8939 30.6938 36.5744 30.9688 36.1872L39.875 23.6872C40.2735 23.0144 40.4053 22.2166 40.2443 21.4514C40.0833 20.6862 39.6413 20.0092 39.0056 19.5539C38.3698 19.0987 37.5865 18.8983 36.8102 18.9924C36.0339 19.0865 35.3211 19.4682 34.8125 20.0622L28.1875 29.4372L27.375 28.1247C27.1083 27.8128 26.7827 27.5565 26.4169 27.3704C26.0511 27.1844 25.6523 27.0722 25.2431 27.0403C24.8339 27.0083 24.4225 27.0573 24.0323 27.1844C23.642 27.3115 23.2807 27.5142 22.9688 27.7809C22.6569 28.0477 22.4006 28.3733 22.2145 28.7391C22.0285 29.1049 21.9163 29.5037 21.8843 29.9129C21.8524 30.322 21.9014 30.7335 22.0285 31.1237C22.1556 31.5139 22.3583 31.8753 22.625 32.1872L26.1875 36.4059Z" fill="#DE9271"/>
<path d="M26.1875 55.1559C26.4809 55.499 26.8452 55.7743 27.2551 55.9632C27.6651 56.152 28.1112 56.2497 28.5625 56.2497C29.037 56.2282 29.5003 56.0988 29.9172 55.8713C30.3342 55.6439 30.6938 55.3244 30.9688 54.9372L39.875 42.4372C40.2735 41.7644 40.4053 40.9666 40.2443 40.2014C40.0833 39.4362 39.6413 38.7592 39.0056 38.3039C38.3698 37.8487 37.5865 37.6483 36.8102 37.7424C36.0339 37.8365 35.3211 38.2182 34.8125 38.8122L28.1875 48.1872L27.375 46.8747C27.1083 46.5628 26.7827 46.3065 26.4169 46.1204C26.0511 45.9344 25.6523 45.8222 25.2431 45.7903C24.8339 45.7583 24.4225 45.8073 24.0323 45.9344C23.642 46.0615 23.2807 46.2642 22.9688 46.5309C22.6569 46.7977 22.4006 47.1233 22.2145 47.4891C22.0285 47.8549 21.9163 48.2537 21.8843 48.6629C21.8524 49.072 21.9014 49.4835 22.0285 49.8737C22.1556 50.2639 22.3583 50.6253 22.625 50.9372L26.1875 55.1559Z" fill="#DE9271"/>
<path d="M31.8438 61.3125C29.8721 61.3125 27.9448 61.8972 26.3054 62.9925C24.6661 64.0879 23.3883 65.6448 22.6338 67.4664C21.8793 69.2879 21.6819 71.2923 22.0666 73.2261C22.4512 75.1598 23.4006 76.9361 24.7948 78.3302C26.1889 79.7244 27.9652 80.6738 29.8989 81.0585C31.8327 81.4431 33.8371 81.2457 35.6586 80.4912C37.4802 79.7367 39.0371 78.4589 40.1325 76.8196C41.2278 75.1802 41.8125 73.2529 41.8125 71.2812C41.8125 69.9721 41.5547 68.6758 41.0537 67.4664C40.5527 66.2569 39.8184 65.158 38.8927 64.2323C37.967 63.3066 36.8681 62.5723 35.6586 62.0713C34.4492 61.5703 33.1529 61.3125 31.8438 61.3125ZM31.8438 75C30.8575 75 29.9116 74.6082 29.2142 73.9108C28.5168 73.2134 28.125 72.2675 28.125 71.2812C28.125 70.295 28.5168 69.3491 29.2142 68.6517C29.9116 67.9543 30.8575 67.5625 31.8438 67.5625C32.83 67.5625 33.7759 67.9543 34.4733 68.6517C35.1707 69.3491 35.5625 70.295 35.5625 71.2812C35.5625 72.2675 35.1707 73.2134 34.4733 73.9108C33.7759 74.6082 32.83 75 31.8438 75Z" fill="#DE9271"/>
<path d="M75 25.25H50C49.1712 25.25 48.3763 25.5792 47.7903 26.1653C47.2042 26.7513 46.875 27.5462 46.875 28.375C46.875 29.2038 47.2042 29.9987 47.7903 30.5847C48.3763 31.1708 49.1712 31.5 50 31.5H75C75.8288 31.5 76.6237 31.1708 77.2097 30.5847C77.7958 29.9987 78.125 29.2038 78.125 28.375C78.125 27.5462 77.7958 26.7513 77.2097 26.1653C76.6237 25.5792 75.8288 25.25 75 25.25Z" fill="#DE9271"/>
<path d="M75 46.875H50C49.1712 46.875 48.3763 47.2042 47.7903 47.7903C47.2042 48.3763 46.875 49.1712 46.875 50C46.875 50.8288 47.2042 51.6237 47.7903 52.2097C48.3763 52.7958 49.1712 53.125 50 53.125H75C75.8288 53.125 76.6237 52.7958 77.2097 52.2097C77.7958 51.6237 78.125 50.8288 78.125 50C78.125 49.1712 77.7958 48.3763 77.2097 47.7903C76.6237 47.2042 75.8288 46.875 75 46.875Z" fill="#DE9271"/>
<path d="M75 68.5H50C49.1712 68.5 48.3763 68.8292 47.7903 69.4153C47.2042 70.0013 46.875 70.7962 46.875 71.625C46.875 72.4538 47.2042 73.2487 47.7903 73.8347C48.3763 74.4208 49.1712 74.75 50 74.75H75C75.8288 74.75 76.6237 74.4208 77.2097 73.8347C77.7958 73.2487 78.125 72.4538 78.125 71.625C78.125 70.7962 77.7958 70.0013 77.2097 69.4153C76.6237 68.8292 75.8288 68.5 75 68.5Z" fill="#DE9271"/>
<path d="M81.7188 6.25H18.2812C15.0929 6.25825 12.0375 7.52847 9.78298 9.78298C7.52847 12.0375 6.25825 15.0929 6.25 18.2812V81.7188C6.25825 84.9071 7.52847 87.9625 9.78298 90.217C12.0375 92.4715 15.0929 93.7418 18.2812 93.75H81.7188C84.9071 93.7418 87.9625 92.4715 90.217 90.217C92.4715 87.9625 93.7418 84.9071 93.75 81.7188V18.2812C93.7418 15.0929 92.4715 12.0375 90.217 9.78298C87.9625 7.52847 84.9071 6.25825 81.7188 6.25ZM87.5 81.7188C87.5 82.478 87.3505 83.2297 87.0599 83.9311C86.7694 84.6326 86.3436 85.2699 85.8067 85.8067C85.2699 86.3436 84.6326 86.7694 83.9311 87.0599C83.2297 87.3505 82.478 87.5 81.7188 87.5H18.2812C17.522 87.5 16.7703 87.3505 16.0689 87.0599C15.3674 86.7694 14.7301 86.3436 14.1933 85.8067C13.6565 85.2699 13.2306 84.6326 12.9401 83.9311C12.6495 83.2297 12.5 82.478 12.5 81.7188V18.2812C12.5 16.748 13.1091 15.2775 14.1933 14.1933C15.2775 13.1091 16.748 12.5 18.2812 12.5H81.7188C82.478 12.5 83.2297 12.6495 83.9311 12.9401C84.6326 13.2306 85.2699 13.6565 85.8067 14.1933C86.3436 14.7301 86.7694 15.3674 87.0599 16.0689C87.3505 16.7703 87.5 17.522 87.5 18.2812V81.7188Z" fill="black"/>
</svg>
