<svg width="100" height="100" viewBox="0 0 100 100" fill="none" xmlns="http://www.w3.org/2000/svg">
<path d="M76.625 6.25072H29.75C28.3114 6.23418 26.8838 6.50326 25.5499 7.04237C24.216 7.58149 23.0024 8.37991 21.9793 9.3914C20.9562 10.4029 20.1439 11.6073 19.5896 12.935C19.0353 14.2626 18.7499 15.687 18.75 17.1257V21.8757H15.625C14.7962 21.8757 14.0013 22.205 13.4153 22.791C12.8292 23.3771 12.5 24.1719 12.5 25.0007C12.5 25.8295 12.8292 26.6244 13.4153 27.2104C14.0013 27.7965 14.7962 28.1257 15.625 28.1257H18.75V46.8757H15.625C14.7962 46.8757 14.0013 47.205 13.4153 47.791C12.8292 48.3771 12.5 49.1719 12.5 50.0007C12.5 50.8295 12.8292 51.6244 13.4153 52.2104C14.0013 52.7965 14.7962 53.1257 15.625 53.1257H18.75V71.8757H15.625C14.7962 71.8757 14.0013 72.205 13.4153 72.791C12.8292 73.3771 12.5 74.1719 12.5 75.0007C12.5 75.8295 12.8292 76.6244 13.4153 77.2104C14.0013 77.7965 14.7962 78.1257 15.625 78.1257H18.75V82.8757C18.75 85.7599 19.8958 88.526 21.9352 90.5655C23.9747 92.605 26.7408 93.7507 29.625 93.7507H76.5C77.9386 93.7673 79.3662 93.4982 80.7001 92.9591C82.034 92.42 83.2476 91.6215 84.2707 90.61C85.2938 89.5985 86.1061 88.3941 86.6604 87.0665C87.2147 85.7388 87.5001 84.3144 87.5 82.8757V17.2507C87.5165 15.8121 87.2475 14.3845 86.7084 13.0506C86.1692 11.7168 85.3708 10.5031 84.3593 9.48C83.3478 8.45688 82.1434 7.64464 80.8158 7.09032C79.4881 6.536 78.0637 6.25062 76.625 6.25072ZM81.25 82.8757C81.2418 84.0998 80.7519 85.2715 79.8863 86.137C79.0207 87.0026 77.8491 87.4925 76.625 87.5007H29.75C29.1333 87.5132 28.5203 87.4029 27.9466 87.1765C27.3728 86.95 26.8498 86.6118 26.4079 86.1815C25.9659 85.7512 25.6139 85.2374 25.3722 84.6699C25.1305 84.1024 25.004 83.4925 25 82.8757V78.1257C25.8288 78.1257 26.6237 77.7965 27.2097 77.2104C27.7958 76.6244 28.125 75.8295 28.125 75.0007C28.125 74.1719 27.7958 73.3771 27.2097 72.791C26.6237 72.205 25.8288 71.8757 25 71.8757V53.1257C25.8288 53.1257 26.6237 52.7965 27.2097 52.2104C27.7958 51.6244 28.125 50.8295 28.125 50.0007C28.125 49.1719 27.7958 48.3771 27.2097 47.791C26.6237 47.205 25.8288 46.8757 25 46.8757V28.1257C25.8288 28.1257 26.6237 27.7965 27.2097 27.2104C27.7958 26.6244 28.125 25.8295 28.125 25.0007C28.125 24.1719 27.7958 23.3771 27.2097 22.791C26.6237 22.205 25.8288 21.8757 25 21.8757V17.1257C25.0082 15.9016 25.4981 14.73 26.3637 13.8644C27.2293 12.9988 28.4009 12.5089 29.625 12.5007H76.5C77.1167 12.4883 77.7297 12.5985 78.3034 12.825C78.8772 13.0514 79.4002 13.3897 79.8421 13.82C80.2841 14.2503 80.6361 14.7641 80.8778 15.3316C81.1195 15.8991 81.246 16.5089 81.25 17.1257V82.8757Z" fill="black"/>
<path d="M62.5 48.75C64.4963 46.5126 65.6075 43.6235 65.625 40.625C65.625 37.3098 64.308 34.1304 61.9638 31.7862C59.6196 29.442 56.4402 28.125 53.125 28.125C49.8098 28.125 46.6304 29.442 44.2862 31.7862C41.942 34.1304 40.625 37.3098 40.625 40.625C40.6425 43.6235 41.7537 46.5126 43.75 48.75C40.9374 50.1774 38.5736 52.3538 36.9194 55.0392C35.2651 57.7246 34.3846 60.8147 34.375 63.9687V71.875C34.375 72.7038 34.7042 73.4987 35.2903 74.0847C35.8763 74.6708 36.6712 75 37.5 75H68.75C69.5788 75 70.3737 74.6708 70.9597 74.0847C71.5458 73.4987 71.875 72.7038 71.875 71.875V63.9687C71.8654 60.8147 70.9849 57.7246 69.3306 55.0392C67.6764 52.3538 65.3126 50.1774 62.5 48.75ZM53.125 34.375C54.3611 34.375 55.5695 34.7416 56.5973 35.4283C57.6251 36.1151 58.4262 37.0912 58.8992 38.2332C59.3723 39.3753 59.4961 40.6319 59.2549 41.8443C59.0138 43.0567 58.4185 44.1703 57.5444 45.0444C56.6703 45.9185 55.5567 46.5138 54.3443 46.7549C53.1319 46.9961 51.8753 46.8723 50.7332 46.3992C49.5912 45.9262 48.6151 45.1251 47.9283 44.0973C47.2416 43.0695 46.875 41.8611 46.875 40.625C46.875 38.9674 47.5335 37.3777 48.7056 36.2056C49.8777 35.0335 51.4674 34.375 53.125 34.375ZM65.625 68.75H40.625V63.9687C40.6332 61.0953 41.7784 58.342 43.8102 56.3102C45.842 54.2784 48.5953 53.1332 51.4687 53.125H54.7813C57.6547 53.1332 60.408 54.2784 62.4398 56.3102C64.4716 58.342 65.6168 61.0953 65.625 63.9687V68.75Z" fill="#DE9271"/>
</svg>
