<svg width="100" height="100" viewBox="0 0 100 100" fill="none" xmlns="http://www.w3.org/2000/svg">
<path d="M85.25 18.75H84.375C83.5462 18.75 82.7513 19.0792 82.1653 19.6653C81.5792 20.2513 81.25 21.0462 81.25 21.875C81.25 22.7038 81.5792 23.4987 82.1653 24.0847C82.7513 24.6708 83.5462 25 84.375 25H85.25C85.8467 25 86.419 25.2371 86.841 25.659C87.2629 26.081 87.5 26.6533 87.5 27.25V69.625C87.5 70.2217 87.2629 70.794 86.841 71.216C86.419 71.638 85.8467 71.875 85.25 71.875H14.75C14.1533 71.875 13.581 71.638 13.159 71.216C12.7371 70.794 12.5 70.2217 12.5 69.625V27.25C12.5 26.6533 12.7371 26.081 13.159 25.659C13.581 25.2371 14.1533 25 14.75 25H15.625C16.4538 25 17.2487 24.6708 17.8347 24.0847C18.4208 23.4987 18.75 22.7038 18.75 21.875C18.75 21.0462 18.4208 20.2513 17.8347 19.6653C17.2487 19.0792 16.4538 18.75 15.625 18.75H14.75C12.4957 18.75 10.3337 19.6455 8.73959 21.2396C7.14553 22.8337 6.25 24.9957 6.25 27.25V69.625C6.25 71.8793 7.14553 74.0414 8.73959 75.6354C10.3337 77.2295 12.4957 78.125 14.75 78.125H46.875V84.375H40.625C39.7962 84.375 39.0013 84.7042 38.4153 85.2903C37.8292 85.8763 37.5 86.6712 37.5 87.5C37.5 88.3288 37.8292 89.1237 38.4153 89.7097C39.0013 90.2958 39.7962 90.625 40.625 90.625H59.375C60.2038 90.625 60.9987 90.2958 61.5847 89.7097C62.1708 89.1237 62.5 88.3288 62.5 87.5C62.5 86.6712 62.1708 85.8763 61.5847 85.2903C60.9987 84.7042 60.2038 84.375 59.375 84.375H53.125V78.125H85.25C87.5043 78.125 89.6664 77.2295 91.2604 75.6354C92.8545 74.0414 93.75 71.8793 93.75 69.625V27.25C93.75 24.9957 92.8545 22.8337 91.2604 21.2396C89.6664 19.6455 87.5043 18.75 85.25 18.75Z" fill="black"/>
<path d="M40.6249 48.5626V56.2501C40.6267 56.8272 40.7882 57.3925 41.0916 57.8834C41.3949 58.3744 41.8283 58.7717 42.3437 59.0314L54.8437 65.2814C55.2791 65.5044 55.7607 65.6222 56.2499 65.6251C56.835 65.627 57.4089 65.4646 57.9062 65.1564C58.3565 64.8749 58.7277 64.4833 58.9847 64.0185C59.2417 63.5538 59.376 63.0312 59.3749 62.5001V48.5626C65.0102 44.6796 69.6466 39.5182 72.9054 33.5004C76.1641 27.4825 77.9527 20.779 78.1249 13.9376C78.1417 13.3418 78.0383 12.7487 77.8209 12.1937C77.6035 11.6388 77.2765 11.1333 76.8594 10.7075C76.4423 10.2816 75.9437 9.94419 75.3934 9.71529C74.843 9.48638 74.2522 9.37069 73.6562 9.37512H26.3437C25.7476 9.37069 25.1568 9.48638 24.6065 9.71529C24.0561 9.94419 23.5576 10.2816 23.1405 10.7075C22.7234 11.1333 22.3964 11.6388 22.179 12.1937C21.9615 12.7487 21.8581 13.3418 21.8749 13.9376C22.0472 20.779 23.8357 27.4825 27.0945 33.5004C30.3533 39.5182 34.9897 44.6796 40.6249 48.5626ZM71.8749 15.6251C71.4057 21.6978 69.4643 27.5649 66.2187 32.7189C63.2674 37.362 59.3305 41.2988 54.6874 44.2501C54.2241 44.5174 53.8371 44.8991 53.5636 45.3587C53.29 45.8183 53.139 46.3404 53.1249 46.8751V57.4376L46.8749 54.3126V46.8751C46.8741 46.3522 46.742 45.838 46.4909 45.3793C46.2397 44.9207 45.8775 44.5325 45.4374 44.2501C40.7943 41.2988 36.8575 37.362 33.9062 32.7189C32.976 31.2478 32.151 29.7127 31.4374 28.1251H43.7499C44.5787 28.1251 45.3736 27.7959 45.9596 27.2098C46.5457 26.6238 46.8749 25.8289 46.8749 25.0001C46.8749 24.1713 46.5457 23.3765 45.9596 22.7904C45.3736 22.2044 44.5787 21.8751 43.7499 21.8751H29.2812C28.7331 19.8252 28.3465 17.7355 28.1249 15.6251H71.8749Z" fill="#DE9271"/>
</svg>
