<svg width="100" height="100" viewBox="0 0 100 100" fill="none" xmlns="http://www.w3.org/2000/svg">
<path d="M83.5938 49.9996C83.5938 49.7183 83.5938 49.4683 83.5938 49.1871C83.5938 48.9058 83.5938 48.8746 83.5938 48.7183C83.6082 48.5833 83.6082 48.4471 83.5938 48.3121C83.2856 42.3851 81.4113 36.6457 78.1619 31.6793C74.9124 26.7128 70.4041 22.6968 65.0966 20.0407C59.7891 17.3846 53.8721 16.1835 47.949 16.5597C42.0259 16.9359 36.3085 18.8761 31.3797 22.1823C26.4509 25.4886 22.4869 30.0427 19.892 35.3804C17.2971 40.7181 16.164 46.6485 16.6082 52.5669C17.0524 58.4853 19.0581 64.18 22.4208 69.0705C25.7835 73.961 30.3829 77.8724 35.75 80.4058L36.3438 80.6558L38.75 81.6246L39.875 81.9683C40.5625 82.1871 41.2813 82.4058 42 82.5621L43.25 82.8746L45.4375 83.2183L46.625 83.3746C47.5938 83.3746 48.5938 83.3746 49.75 83.3746H50C53.1753 83.3754 56.3337 82.9121 59.375 81.9996C59.769 81.8847 60.1365 81.6933 60.4565 81.4364C60.7765 81.1795 61.0427 80.862 61.2401 80.5022C61.4374 80.1424 61.5619 79.7472 61.6065 79.3392C61.6511 78.9313 61.6149 78.5186 61.5 78.1246C61.3851 77.7306 61.1937 77.3632 60.9368 77.0431C60.6799 76.7231 60.3625 76.4569 60.0026 76.2595C59.6428 76.0622 59.2476 75.9377 58.8397 75.8931C58.4317 75.8485 58.019 75.8847 57.625 75.9996C54.8595 76.8247 51.978 77.1941 49.0938 77.0933H47.5938H46.5938L45.1563 76.8746L44.0938 76.6558L42.7813 76.3433L41.625 75.9996L40.625 75.6558L39.3125 74.9996C36.6053 73.8775 34.1027 72.3147 31.9063 70.3746C28.5023 67.3761 25.8978 63.5779 24.3273 59.3221C22.7569 55.0663 22.27 50.4867 22.9104 45.9958C23.5508 41.505 25.2984 37.244 27.9958 33.5968C30.6932 29.9496 34.2556 27.0308 38.362 25.1034C42.4685 23.1759 46.9899 22.3004 51.519 22.5556C56.0481 22.8109 60.4426 24.189 64.3064 26.5656C68.1703 28.9423 71.3821 32.243 73.6526 36.1702C75.923 40.0973 77.1808 44.5277 77.3125 49.0621C77.3675 51.016 76.6731 52.917 75.3716 54.3753C74.0701 55.8337 72.2601 56.7391 70.3125 56.9058C68.2831 56.7229 66.4074 55.748 65.0914 54.1922C63.7754 52.6365 63.1251 50.625 63.2813 48.5933C63.2805 48.1744 63.1955 47.76 63.0313 47.3746C62.6694 45.4756 61.8974 43.6786 60.7691 42.1089C59.6409 40.5392 58.1835 39.2347 56.4989 38.2866C54.8143 37.3384 52.943 36.7695 51.0157 36.6194C49.0884 36.4694 47.1516 36.7418 45.3405 37.4178C43.5294 38.0938 41.8878 39.157 40.5301 40.5331C39.1725 41.9093 38.1316 43.5652 37.4802 45.3853C36.8289 47.2053 36.5826 49.1456 36.7588 51.0707C36.9349 52.9958 37.5292 54.8592 38.5 56.5308C38.7793 57.0019 39.1775 57.3913 39.6546 57.6601C40.1318 57.9288 40.6712 58.0675 41.2188 58.0621C41.7657 58.0588 42.3022 57.912 42.7747 57.6364C43.2471 57.3608 43.639 56.966 43.911 56.4915C44.1831 56.017 44.3258 55.4794 44.325 54.9324C44.3241 54.3854 44.1798 53.8483 43.9063 53.3746C43.285 52.3133 42.9611 51.1043 42.9688 49.8746C42.9688 48.0098 43.7096 46.2214 45.0282 44.9027C46.3468 43.5841 48.1352 42.8433 50 42.8433C51.8648 42.8433 53.6533 43.5841 54.9719 44.9027C56.2905 46.2214 57.0313 48.0098 57.0313 49.8746C57.0417 50.2388 57.1157 50.5984 57.25 50.9371C57.606 54.1994 59.1196 57.2261 61.5162 59.468C63.9128 61.7098 67.0337 63.0182 70.3125 63.1558C73.5914 63.0182 76.7122 61.7098 79.1089 59.468C81.5055 57.2261 83.0191 54.1994 83.375 50.9371C83.4959 50.6378 83.5697 50.3215 83.5938 49.9996Z" fill="black"/>
<path d="M41.4063 64.8752C40.4214 64.3048 39.4904 63.6458 38.625 62.9065C36.4729 61.0065 34.831 58.5978 33.8491 55.9001C32.8672 53.2025 32.5767 50.3018 33.0041 47.463C33.4314 44.6242 34.5631 41.9377 36.2956 39.6486C38.0282 37.3596 40.3066 35.541 42.9227 34.3589C45.5388 33.1768 48.4094 32.6688 51.2723 32.8813C54.1352 33.0938 56.8993 34.02 59.3122 35.5754C61.7251 37.1308 63.71 39.2658 65.0857 41.7855C66.4614 44.3053 67.184 47.1294 67.1875 50.0002C67.1875 50.829 67.5168 51.6239 68.1028 52.2099C68.6889 52.796 69.4837 53.1252 70.3125 53.1252C71.1413 53.1252 71.9362 52.796 72.5223 52.2099C73.1083 51.6239 73.4375 50.829 73.4375 50.0002C73.4168 46.0961 72.421 42.2589 70.5407 38.8373C68.6604 35.4157 65.9551 32.518 62.6705 30.4074C59.386 28.2968 55.6262 27.0402 51.7327 26.7516C47.8391 26.463 43.9352 27.1517 40.3753 28.755C36.8155 30.3584 33.7126 32.8256 31.3485 35.9326C28.9843 39.0397 27.4338 42.6881 26.8377 46.5466C26.2416 50.405 26.6188 54.3512 27.9351 58.0269C29.2514 61.7025 31.4651 64.9911 34.375 67.594C35.541 68.6248 36.8078 69.5357 38.1563 70.3127C38.5133 70.5179 38.9073 70.6508 39.3156 70.7037C39.724 70.7567 40.1388 70.7287 40.5364 70.6213C40.9339 70.5139 41.3064 70.3293 41.6326 70.078C41.9588 69.8266 42.2323 69.5135 42.4375 69.1565C42.6427 68.7995 42.7756 68.4055 42.8285 67.9971C42.8815 67.5888 42.8535 67.1739 42.7461 66.7764C42.6387 66.3788 42.4541 66.0063 42.2028 65.6801C41.9514 65.3539 41.6383 65.0804 41.2813 64.8752H41.4063Z" fill="black"/>
<path d="M69.0312 67.1875C64.8152 67.1792 60.7742 65.5008 57.793 62.5195C54.8117 59.5383 53.1333 55.4973 53.125 51.2813C53.125 50.4524 52.7958 49.6576 52.2097 49.0715C51.6237 48.4855 50.8288 48.1562 50 48.1562C49.1712 48.1562 48.3763 48.4855 47.7903 49.0715C47.2042 49.6576 46.875 50.4524 46.875 51.2813C46.8833 57.1549 49.2202 62.7856 53.3735 66.939C57.5269 71.0923 63.1576 73.4292 69.0312 73.4375C69.8601 73.4375 70.6549 73.1083 71.241 72.5222C71.827 71.9362 72.1562 71.1413 72.1562 70.3125C72.1562 69.4837 71.827 68.6888 71.241 68.1028C70.6549 67.5167 69.8601 67.1875 69.0312 67.1875Z" fill="#DE9271"/>
<path d="M50 6.25017C47.5606 6.24342 45.1249 6.44204 42.7188 6.84392C41.89 6.98067 41.1494 7.44106 40.6601 8.12381C40.1707 8.80656 39.9727 9.65574 40.1094 10.4845C40.2462 11.3133 40.7065 12.0539 41.3893 12.5432C42.072 13.0326 42.9212 13.2307 43.75 13.0939C45.8135 12.7242 47.9039 12.5256 50 12.5002C56.7785 12.5014 63.43 14.3399 69.2468 17.8202C75.0637 21.3004 79.8284 26.2923 83.0343 32.2648C86.2401 38.2373 87.7672 44.9671 87.453 51.7383C87.1388 58.5095 84.9951 65.0689 81.25 70.7189C80.8075 71.4053 80.6513 72.2377 80.8148 73.0379C80.9784 73.8381 81.4487 74.5424 82.125 75.0002C82.4673 75.229 82.8515 75.3879 83.2555 75.4678C83.6594 75.5477 84.0751 75.5469 84.4788 75.4656C84.8824 75.3843 85.266 75.224 85.6076 74.994C85.9491 74.7639 86.2417 74.4687 86.4688 74.1252C90.826 67.5334 93.3167 59.8845 93.6762 51.991C94.0358 44.0974 92.2509 36.2539 88.511 29.2932C84.7711 22.3326 79.2158 16.5147 72.4352 12.4576C65.6546 8.40037 57.9018 6.25531 50 6.25017Z" fill="black"/>
<path d="M31.25 82.4995C25.2834 79.0613 20.3787 74.0465 17.0738 68.0051C13.7689 61.9636 12.1913 55.1288 12.5141 48.25C12.8369 41.3713 15.0476 34.7142 18.9037 29.0088C22.7599 23.3034 28.1126 18.77 34.375 15.9057C34.7491 15.7341 35.0856 15.4902 35.3651 15.1882C35.6447 14.8862 35.8619 14.5319 36.0042 14.1457C36.1464 13.7595 36.211 13.349 36.1942 12.9378C36.1774 12.5266 36.0796 12.1227 35.9063 11.7495C35.5595 11.0019 34.9315 10.4216 34.1589 10.1348C33.3864 9.84801 32.5318 9.87799 31.7813 10.2182C27.8831 11.9977 24.2708 14.3462 21.0625 17.187C15.8522 21.7786 11.8098 27.5446 9.26964 34.0083C6.72949 40.4719 5.76459 47.4474 6.45472 54.3578C7.14485 61.2683 9.47018 67.9152 13.2384 73.7488C17.0067 79.5824 22.1095 84.4352 28.125 87.9057C28.4817 88.1123 28.8757 88.2464 29.2844 88.3C29.6931 88.3538 30.1083 88.3261 30.5063 88.2186C30.9042 88.1111 31.277 87.926 31.603 87.6738C31.9291 87.4217 32.2021 87.1075 32.4063 86.7495C32.8137 86.0319 32.9208 85.1823 32.7041 84.3861C32.4875 83.5899 31.9648 82.9117 31.25 82.4995Z" fill="black"/>
<path d="M65.6249 84.0952C57.7905 87.6719 48.9668 88.455 40.6249 86.314C39.821 86.1068 38.9677 86.2274 38.2527 86.6494C37.5377 87.0713 37.0196 87.76 36.8124 88.564C36.6052 89.3679 36.7259 90.2212 37.1479 90.9362C37.5698 91.6512 38.2585 92.1693 39.0624 92.3765C42.6367 93.2889 46.3111 93.7508 49.9999 93.7515C56.2884 93.762 62.5043 92.4079 68.2187 89.7827C68.5921 89.6124 68.9284 89.3702 69.2082 89.07C69.4881 88.7697 69.706 88.4173 69.8497 88.0328C69.9933 87.6483 70.0598 87.2393 70.0454 86.8291C70.031 86.4189 69.9359 86.0156 69.7656 85.6421C69.5953 85.2687 69.3531 84.9324 69.0528 84.6526C68.7526 84.3727 68.4001 84.1548 68.0156 84.0111C67.6311 83.8675 67.2221 83.801 66.8119 83.8154C66.4017 83.8298 65.9984 83.9249 65.6249 84.0952Z" fill="black"/>
</svg>
