<svg width="100" height="100" viewBox="0 0 100 100" fill="none" xmlns="http://www.w3.org/2000/svg">
<path d="M91.1562 9.37544C90.423 9.00949 89.6027 8.85373 88.7864 8.92544C87.97 8.99715 87.1895 9.29352 86.5312 9.78169C83.7155 11.8625 80.536 13.3992 77.1562 14.3129C72.6222 15.5321 67.8466 15.5321 63.3125 14.3129C55.1067 11.0486 46.5653 8.701 37.8437 7.31294C28.4808 5.84723 18.9777 5.4906 9.53125 6.25044H9.375C8.85939 6.26258 8.35481 6.40215 7.90625 6.65669C7.58695 6.83474 7.30137 7.06743 7.0625 7.34419V7.53169C6.8687 7.77382 6.72046 8.04911 6.625 8.34419C6.60719 8.49993 6.60719 8.6572 6.625 8.81294C6.48003 8.98633 6.35429 9.17493 6.25 9.37544V90.6254C6.25 91.4542 6.57924 92.2491 7.16529 92.8352C7.75134 93.4212 8.5462 93.7504 9.375 93.7504C10.2038 93.7504 10.9987 93.4212 11.5847 92.8352C12.1708 92.2491 12.5 91.4542 12.5 90.6254V12.5004C20.6833 11.9835 28.8985 12.3607 37 13.6254C45.3357 14.9532 53.4996 17.1959 61.3437 20.3129H61.6875C67.3317 21.873 73.2933 21.873 78.9375 20.3129C81.9514 19.4794 84.8336 18.2277 87.5 16.5942V63.2504C83.2264 64.9116 78.6637 65.701 74.0805 65.5722C69.4972 65.4434 64.986 64.399 60.8125 62.5004C53.7729 58.3278 45.8521 55.8659 37.6875 55.3129C32.0904 54.9389 26.4703 55.5093 21.0625 57.0004C20.654 57.0956 20.2689 57.272 19.9301 57.5192C19.5912 57.7663 19.3056 58.0791 19.0902 58.439C18.8748 58.7988 18.734 59.1984 18.6763 59.6138C18.6186 60.0292 18.6451 60.452 18.7542 60.8569C18.8633 61.2619 19.0528 61.6407 19.3114 61.9709C19.57 62.3011 19.8924 62.5758 20.2595 62.7787C20.6265 62.9817 21.0306 63.1087 21.4478 63.1521C21.8649 63.1956 22.2865 63.1546 22.6875 63.0317C27.446 61.7266 32.3881 61.2197 37.3125 61.5317C44.5448 62.0479 51.5554 64.2527 57.7812 67.9692H58.0625C63.1807 70.3987 68.7529 71.7238 74.4169 71.8584C80.0808 71.993 85.7097 70.9341 90.9375 68.7504C91.7859 68.3803 92.5057 67.7674 93.0062 66.9888C93.5067 66.2102 93.7655 65.3009 93.75 64.3754V13.5942C93.751 12.7197 93.509 11.8622 93.051 11.1172C92.593 10.3723 91.937 9.76924 91.1562 9.37544Z" fill="black"/>
<path d="M37.5 44.4687V50C37.5 50.8288 37.8292 51.6237 38.4153 52.2097C39.0013 52.7958 39.7962 53.125 40.625 53.125H59.375C60.2038 53.125 60.9987 52.7958 61.5847 52.2097C62.1708 51.6237 62.5 50.8288 62.5 50V44.4687C62.5011 42.8095 62.0906 41.1759 61.3052 39.7143C60.5199 38.2526 59.3842 37.0087 58 36.0938C58.8914 34.6348 59.3669 32.9598 59.375 31.25C59.375 28.7636 58.3873 26.379 56.6291 24.6209C54.871 22.8627 52.4864 21.875 50 21.875C47.5136 21.875 45.129 22.8627 43.3709 24.6209C41.6127 26.379 40.625 28.7636 40.625 31.25C40.6331 32.9598 41.1085 34.6348 42 36.0938C40.6158 37.0087 39.4801 38.2526 38.6948 39.7143C37.9094 41.1759 37.4989 42.8095 37.5 44.4687ZM56.25 46.875H43.75V44.4687C43.75 43.4493 44.155 42.4717 44.8758 41.7508C45.5967 41.03 46.5743 40.625 47.5937 40.625H52.4063C53.4257 40.625 54.4033 41.03 55.1242 41.7508C55.845 42.4717 56.25 43.4493 56.25 44.4687V46.875ZM50 28.125C50.6181 28.125 51.2223 28.3083 51.7362 28.6517C52.2501 28.995 52.6506 29.4831 52.8871 30.0541C53.1236 30.6251 53.1855 31.2535 53.065 31.8597C52.9444 32.4658 52.6467 33.0227 52.2097 33.4597C51.7727 33.8967 51.2158 34.1944 50.6097 34.315C50.0035 34.4355 49.3751 34.3736 48.8041 34.1371C48.2331 33.9006 47.745 33.5001 47.4017 32.9862C47.0583 32.4723 46.875 31.8681 46.875 31.25C46.875 30.4212 47.2042 29.6263 47.7903 29.0403C48.3763 28.4542 49.1712 28.125 50 28.125Z" fill="#DE9271"/>
</svg>
