<svg width="100" height="100" viewBox="0 0 100 100" fill="none" xmlns="http://www.w3.org/2000/svg">
<path d="M85.5 32.8136C80.8125 25.8449 72.2812 28.1261 67.1875 30.7511C62.0937 28.0324 53.5625 25.8449 48.875 32.8136C45.75 37.1886 46.2812 43.4386 49.9375 50.3136C53.8437 57.6886 61.5625 65.6261 67.1875 65.6261C72.8125 65.6261 80.5312 57.6886 84.4375 50.3136C88.0937 43.4386 88.4687 37.1886 85.5 32.8136ZM78.9375 47.3761C75.25 54.3136 69.0312 59.3761 67.1875 59.3761C65.3437 59.3761 59.125 54.3136 55.4375 47.3761C54.2812 45.1574 51.7812 39.6574 54.0625 36.2824C54.4932 35.6541 55.0796 35.1482 55.7642 34.8141C56.4488 34.48 57.2084 34.3291 57.9687 34.3761C60.6388 34.6346 63.2094 35.5236 65.4687 36.9699C65.979 37.3059 66.5765 37.485 67.1875 37.485C67.7984 37.485 68.396 37.3059 68.9062 36.9699C68.9062 36.9699 77.2187 31.6886 80.3125 36.2824C82.5937 39.6574 80.0937 45.1574 78.9375 47.3761Z" fill="#DE9271"/>
<path d="M71.875 71.875C71.0462 71.875 70.2513 72.2042 69.6653 72.7903C69.0792 73.3763 68.75 74.1712 68.75 75V81.25C68.75 82.9076 68.0915 84.4973 66.9194 85.6694C65.7473 86.8415 64.1576 87.5 62.5 87.5H25C23.3424 87.5 21.7527 86.8415 20.5806 85.6694C19.4085 84.4973 18.75 82.9076 18.75 81.25V18.75C18.75 17.0924 19.4085 15.5027 20.5806 14.3306C21.7527 13.1585 23.3424 12.5 25 12.5H62.5C64.1576 12.5 65.7473 13.1585 66.9194 14.3306C68.0915 15.5027 68.75 17.0924 68.75 18.75C68.75 19.5788 69.0792 20.3737 69.6653 20.9597C70.2513 21.5458 71.0462 21.875 71.875 21.875C72.7038 21.875 73.4987 21.5458 74.0847 20.9597C74.6708 20.3737 75 19.5788 75 18.75C75 15.4348 73.683 12.2554 71.3388 9.91117C68.9946 7.56696 65.8152 6.25 62.5 6.25H25C21.6848 6.25 18.5054 7.56696 16.1612 9.91117C13.817 12.2554 12.5 15.4348 12.5 18.75V81.25C12.5 84.5652 13.817 87.7446 16.1612 90.0888C18.5054 92.433 21.6848 93.75 25 93.75H62.5C65.8152 93.75 68.9946 92.433 71.3388 90.0888C73.683 87.7446 75 84.5652 75 81.25V75C75 74.1712 74.6708 73.3763 74.0847 72.7903C73.4987 72.2042 72.7038 71.875 71.875 71.875Z" fill="black"/>
<path d="M43.75 81.25C47.2018 81.25 50 78.4518 50 75C50 71.5482 47.2018 68.75 43.75 68.75C40.2982 68.75 37.5 71.5482 37.5 75C37.5 78.4518 40.2982 81.25 43.75 81.25Z" fill="#DE9271"/>
</svg>
