<svg width="100" height="100" viewBox="0 0 100 100" fill="none" xmlns="http://www.w3.org/2000/svg">
<path d="M21.875 46.875C24.9653 46.875 27.9863 45.9586 30.5558 44.2417C33.1253 42.5248 35.128 40.0845 36.3106 37.2294C37.4932 34.3743 37.8027 31.2327 37.1998 28.2017C36.5969 25.1708 35.1087 22.3867 32.9235 20.2015C30.7383 18.0163 27.9542 16.5281 24.9233 15.9252C21.8923 15.3223 18.7507 15.6318 15.8956 16.8144C13.0405 17.997 10.6002 19.9997 8.88329 22.5692C7.16639 25.1387 6.25 28.1597 6.25 31.25C6.25 35.394 7.8962 39.3683 10.8265 42.2985C13.7567 45.2288 17.731 46.875 21.875 46.875ZM21.875 21.875C23.7292 21.875 25.5418 22.4248 27.0835 23.455C28.6252 24.4851 29.8268 25.9493 30.5364 27.6623C31.2459 29.3754 31.4316 31.2604 31.0699 33.079C30.7081 34.8976 29.8152 36.568 28.5041 37.8791C27.193 39.1903 25.5225 40.0831 23.704 40.4449C21.8854 40.8066 20.0004 40.621 18.2873 39.9114C16.5743 39.2018 15.1101 38.0002 14.08 36.4585C13.0498 34.9168 12.5 33.1042 12.5 31.25C12.5 28.7636 13.4877 26.379 15.2459 24.6209C17.004 22.8627 19.3886 21.875 21.875 21.875Z" fill="#DE9271"/>
<path d="M86.4062 21.875H43.75C42.9212 21.875 42.1263 22.2042 41.5403 22.7903C40.9542 23.3763 40.625 24.1712 40.625 25V40.625C40.625 41.4538 40.9542 42.2487 41.5403 42.8347C42.1263 43.4208 42.9212 43.75 43.75 43.75C44.5788 43.75 45.3737 43.4208 45.9597 42.8347C46.5458 42.2487 46.875 41.4538 46.875 40.625V28.125H86.4062C86.6963 28.125 86.9745 28.2402 87.1796 28.4454C87.3848 28.6505 87.5 28.9287 87.5 29.2188V36.4062C87.5 36.6963 87.3848 36.9745 87.1796 37.1796C86.9745 37.3848 86.6963 37.5 86.4062 37.5H57.3438C56.5149 37.5 55.7201 37.8292 55.134 38.4153C54.548 39.0013 54.2188 39.7962 54.2188 40.625C54.2188 41.4538 54.548 42.2487 55.134 42.8347C55.7201 43.4208 56.5149 43.75 57.3438 43.75L86.4375 43.9062C87.4113 43.8981 88.3739 43.6972 89.2697 43.3151C90.1655 42.933 90.9767 42.3773 91.6566 41.68C92.3364 40.9827 92.8714 40.1577 93.2308 39.2525C93.5901 38.3473 93.7665 37.38 93.75 36.4062V29.2188C93.7418 27.2736 92.9654 25.4105 91.59 24.035C90.2145 22.6596 88.3514 21.8832 86.4062 21.875Z" fill="black"/>
<path d="M18.375 31.2499C18.4576 31.3497 18.5656 31.4252 18.6875 31.4687C18.798 31.5122 18.9209 31.5122 19.0313 31.4687L20.9063 30.0312V36.8124C20.8758 36.925 20.8758 37.0436 20.9063 37.1562C21.0167 37.1997 21.1396 37.1997 21.2501 37.1562H24.3751C24.4241 37.1786 24.4774 37.1903 24.5313 37.1903C24.5852 37.1903 24.6385 37.1786 24.6876 37.1562C24.7282 37.0452 24.7282 36.9234 24.6876 36.8124V25.8437C24.726 25.7431 24.726 25.6318 24.6876 25.5312C24.6385 25.5087 24.5852 25.4971 24.5313 25.4971C24.4774 25.4971 24.4241 25.5087 24.3751 25.5312H21.2813L17.2188 28.6562C17.1097 28.7297 17.0318 28.841 17 28.9687C16.9679 29.081 16.9679 29.2001 17 29.3124L18.375 31.2499Z" fill="#DE9271"/>
<path d="M18.4062 53.5309C14.6762 54.3983 11.3947 56.6053 9.1847 59.7328C6.97473 62.8603 5.99025 66.6905 6.41823 70.496C6.84621 74.3015 8.65683 77.8174 11.5063 80.3759C14.3557 82.9344 18.0455 84.3574 21.875 84.3746C23.0536 84.3783 24.2285 84.242 25.375 83.9684C26.8633 83.637 28.2952 83.0895 29.625 82.3434C30.3314 81.9313 30.8481 81.2588 31.0643 80.47C31.2805 79.6813 31.1788 78.8393 30.7812 78.1246C30.5771 77.7665 30.3041 77.4524 29.978 77.2002C29.6519 76.9481 29.2792 76.763 28.8812 76.6555C28.4833 76.548 28.068 76.5203 27.6593 76.574C27.2507 76.6277 26.8566 76.7617 26.5 76.9684C25.6998 77.4193 24.8358 77.7459 23.9375 77.9371C21.5189 78.4915 18.9792 78.0645 16.875 76.7496C15.8352 76.0893 14.9357 75.2306 14.2279 74.2226C13.5201 73.2145 13.0179 72.0769 12.75 70.8746C12.4354 69.6589 12.3684 68.3923 12.5528 67.1501C12.7371 65.908 13.1692 64.7155 13.8233 63.6435C14.4774 62.5715 15.3401 61.6419 16.3604 60.9097C17.3807 60.1776 18.5377 59.6579 19.7627 59.3815C20.9876 59.1051 22.2557 59.0776 23.4915 59.3007C24.7273 59.5237 25.9057 59.9928 26.9567 60.6801C28.0078 61.3673 28.91 62.2587 29.61 63.3013C30.3099 64.344 30.7932 65.5166 31.0312 66.7496C31.1718 67.4071 31.2451 68.0773 31.25 68.7496C31.25 69.5784 31.5792 70.3733 32.1653 70.9593C32.7513 71.5454 33.5462 71.8746 34.375 71.8746C35.2038 71.8746 35.9986 71.5454 36.5847 70.9593C37.1707 70.3733 37.5 69.5784 37.5 68.7496C37.5006 67.5316 37.3749 66.3168 37.125 65.1246C36.1669 61.1127 33.6613 57.6423 30.1547 55.4705C26.648 53.2986 22.4249 52.6014 18.4062 53.5309Z" fill="#DE9271"/>
<path d="M86.4063 59.375H43.75C42.9212 59.375 42.1263 59.7042 41.5403 60.2903C40.9542 60.8763 40.625 61.6712 40.625 62.5V78.125C40.625 78.9538 40.9542 79.7487 41.5403 80.3347C42.1263 80.9208 42.9212 81.25 43.75 81.25H86.4063C88.3514 81.2418 90.2145 80.4654 91.59 79.09C92.9654 77.7145 93.7418 75.8514 93.75 73.9062V66.75C93.7541 65.783 93.5672 64.8247 93.2 63.9301C92.8328 63.0355 92.2925 62.2222 91.6101 61.537C90.9278 60.8517 90.1169 60.308 89.2238 59.937C88.3308 59.566 87.3733 59.375 86.4063 59.375ZM87.5 73.9062C87.5001 74.1993 87.3859 74.4808 87.1816 74.6909C86.9774 74.901 86.6992 75.0231 86.4063 75.0313H46.875V65.625H86.4063C86.5499 65.625 86.6921 65.6533 86.8248 65.7083C86.9575 65.7632 87.0781 65.8438 87.1797 65.9454C87.2812 66.0469 87.3618 66.1675 87.4167 66.3002C87.4717 66.4329 87.5 66.5751 87.5 66.7188V73.9062Z" fill="black"/>
<path d="M20.1562 69.4697L17.2188 71.626H17.0312C16.9367 71.6853 16.8549 71.7628 16.7905 71.854C16.7261 71.9452 16.6805 72.0483 16.6562 72.1572C16.6563 72.3447 16.6562 72.4697 16.6562 72.5322V74.2822C16.6614 74.4128 16.7175 74.5362 16.8125 74.626C16.862 74.6466 16.9151 74.6572 16.9687 74.6572C17.0224 74.6572 17.0755 74.6466 17.125 74.626H26.8125C26.862 74.6466 26.9151 74.6572 26.9688 74.6572C27.0224 74.6572 27.0755 74.6466 27.125 74.626C27.22 74.5362 27.2761 74.4128 27.2812 74.2822V71.876C27.2761 71.7454 27.22 71.622 27.125 71.5322C27.0229 71.5027 26.9146 71.5027 26.8125 71.5322H23.1875C23.8627 71.0965 24.5003 70.6053 25.0937 70.0635C25.6054 69.6424 26.0391 69.1347 26.375 68.5635C26.6853 68.0441 26.8474 67.4497 26.8438 66.8447C26.8574 66.1183 26.6384 65.4066 26.2188 64.8135C25.7693 64.2285 25.1621 63.784 24.4687 63.5322C23.6571 63.1364 22.7761 62.9029 21.875 62.8447C21.1964 62.8473 20.5221 62.9526 19.875 63.1572C19.2809 63.3233 18.7276 63.6106 18.25 64.001C17.7689 64.3645 17.3818 64.8378 17.1208 65.3815C16.8599 65.9251 16.7327 66.5232 16.75 67.126C16.7186 67.2064 16.7186 67.2956 16.75 67.376C16.8412 67.4069 16.9401 67.4069 17.0312 67.376H20.1562C20.2896 67.4091 20.4291 67.4091 20.5625 67.376C20.626 67.3475 20.6818 67.3043 20.7253 67.25C20.7688 67.1956 20.7987 67.1317 20.8125 67.0635C20.8234 66.9491 20.8234 66.8341 20.8125 66.7197C20.8663 66.5863 20.9522 66.4683 21.0625 66.376C21.1616 66.2641 21.2932 66.186 21.4388 66.1524C21.5844 66.1188 21.7369 66.1314 21.875 66.1885C22.1562 66.1885 22.3438 66.1885 22.4062 66.4072C22.4385 66.5513 22.4385 66.7007 22.4062 66.8447C22.3595 67.2819 22.147 67.6845 21.8125 67.9697C21.3052 68.517 20.751 69.0189 20.1562 69.4697Z" fill="#DE9271"/>
</svg>
