<svg width="100" height="100" viewBox="0 0 100 100" fill="none" xmlns="http://www.w3.org/2000/svg">
<path d="M49.5 64L51.6651 74.5H47.3349L49.5 64Z" fill="#DE9271"/>
<circle cx="49.5" cy="65.5" r="4.5" fill="#DE9271"/>
<path d="M74.9999 43.75V31.25C74.9999 24.6196 72.366 18.2607 67.6776 13.5723C62.9892 8.88392 56.6304 6.25 50 6.25C43.3695 6.25 37.0107 8.88392 32.3223 13.5723C27.6339 18.2607 24.9999 24.6196 24.9999 31.25V43.75C22.4628 43.9384 20.0896 45.0751 18.3524 46.9338C16.6152 48.7926 15.6415 51.2372 15.6249 53.7812V83.5938C15.6167 84.9245 15.8717 86.2438 16.3753 87.4757C16.8788 88.7075 17.621 89.8276 18.5592 90.7715C19.4973 91.7155 20.6128 92.4646 21.8415 92.9757C23.0702 93.4869 24.3879 93.75 25.7187 93.75H74.2812C76.9582 93.75 79.5256 92.6866 81.4186 90.7936C83.3115 88.9007 84.3749 86.3333 84.3749 83.6562V53.8438C84.3741 51.2889 83.4074 48.8287 81.6687 46.9567C79.93 45.0847 77.5478 43.9393 74.9999 43.75ZM50 12.5C54.9728 12.5 59.7419 14.4754 63.2582 17.9917C66.7745 21.5081 68.7499 26.2772 68.7499 31.25V43.75H31.2499V31.25C31.2499 26.2772 33.2254 21.5081 36.7417 17.9917C40.258 14.4754 45.0271 12.5 50 12.5ZM78.1249 83.6562C78.1249 84.161 78.0255 84.6608 77.8324 85.1272C77.6392 85.5935 77.3561 86.0173 76.9991 86.3742C76.6422 86.7311 76.2185 87.0142 75.7521 87.2074C75.2858 87.4006 74.786 87.5 74.2812 87.5H25.7187C25.2139 87.5 24.7141 87.4006 24.2478 87.2074C23.7814 87.0142 23.3577 86.7311 23.0008 86.3742C22.6438 86.0173 22.3607 85.5935 22.1675 85.1272C21.9744 84.6608 21.8749 84.161 21.8749 83.6562V53.8438C21.8749 52.8243 22.2799 51.8466 23.0008 51.1258C23.7216 50.405 24.6993 50 25.7187 50H74.2812C75.3006 50 76.2783 50.405 76.9991 51.1258C77.72 51.8466 78.1249 52.8243 78.1249 53.8438V83.6562Z" fill="black"/>
</svg>
