<svg width="100" height="100" viewBox="0 0 100 100" fill="none" xmlns="http://www.w3.org/2000/svg">
<path d="M78.5625 81.4688C77.7957 81.1596 76.9377 81.1668 76.1762 81.489C75.4148 81.8111 74.8121 82.4219 74.5 83.1875C74.0004 84.4431 73.1402 85.5226 72.028 86.2901C70.9157 87.0575 69.6012 87.4785 68.25 87.5H31.875C30.0542 87.4918 28.3103 86.7648 27.0227 85.4773C25.7352 84.1897 25.0082 82.4458 25 80.625V19.375C25.0082 17.5542 25.7352 15.8103 27.0227 14.5227C28.3103 13.2352 30.0542 12.5082 31.875 12.5H68.125C69.4762 12.5215 70.7907 12.9425 71.903 13.7099C73.0152 14.4774 73.8754 15.5569 74.375 16.8125C74.5309 17.1921 74.7601 17.5373 75.0495 17.8283C75.3388 18.1193 75.6826 18.3505 76.0613 18.5087C76.44 18.6668 76.8462 18.7488 77.2565 18.75C77.6669 18.7512 78.0735 18.6716 78.4531 18.5156C78.8327 18.3597 79.1779 18.1305 79.4689 17.8412C79.76 17.5518 79.9911 17.208 80.1493 16.8293C80.3074 16.4506 80.3895 16.0445 80.3907 15.6341C80.3918 15.2237 80.3122 14.8171 80.1563 14.4375C79.1892 12.0333 77.5288 9.97104 75.3864 8.51309C73.244 7.05514 70.7164 6.26738 68.125 6.25H31.875C28.3966 6.25825 25.063 7.64371 22.6033 10.1033C20.1437 12.563 18.7583 15.8966 18.75 19.375V80.625C18.7583 84.1034 20.1437 87.437 22.6033 89.8967C25.063 92.3563 28.3966 93.7417 31.875 93.75H68.125C70.7377 93.7575 73.2926 92.9813 75.4596 91.5218C77.6266 90.0623 79.3062 87.9864 80.2813 85.5625C80.4392 85.1811 80.52 84.7721 80.5189 84.3593C80.5179 83.9465 80.4351 83.538 80.2753 83.1573C80.1155 82.7767 79.8818 82.4315 79.5879 82.1416C79.2939 81.8518 78.9454 81.6231 78.5625 81.4688Z" fill="black"/>
<path d="M92.2813 29.75L80.7501 25C79.9893 24.6875 79.1359 24.6875 78.3751 25C77.9912 25.1536 77.6416 25.3819 77.3466 25.6715C77.0515 25.9612 76.8169 26.3065 76.6563 26.6875L73.0313 35.3438L59.6876 66.875C59.3912 67.4524 59.282 68.1077 59.3751 68.75L61.5001 79.8125C61.5925 80.3203 61.8093 80.7972 62.1311 81.2007C62.4528 81.6042 62.8694 81.9218 63.3438 82.125C63.7329 82.2732 64.1462 82.3474 64.5626 82.3438C65.172 82.3483 65.7694 82.1745 66.2813 81.8438L75.6563 75.5938C76.1728 75.2502 76.5753 74.7607 76.8126 74.1875L93.7813 33.875C94.1236 33.1283 94.1582 32.2768 93.8774 31.5049C93.5967 30.7329 93.0233 30.1025 92.2813 29.75ZM81.2501 31.875L87.0001 34.3125L85.7813 37.1875L80.0313 34.75L81.2501 31.875ZM71.5938 70.875L66.8751 74L65.8126 68.4688L77.5626 40.625L83.3438 43.0625L71.5938 70.875Z" fill="#DE9271"/>
<path d="M62.5 28.125C62.5 27.2962 62.1708 26.5013 61.5847 25.9153C60.9987 25.3292 60.2038 25 59.375 25H37.5C36.6712 25 35.8763 25.3292 35.2903 25.9153C34.7042 26.5013 34.375 27.2962 34.375 28.125C34.375 28.9538 34.7042 29.7487 35.2903 30.3347C35.8763 30.9208 36.6712 31.25 37.5 31.25H59.375C60.2038 31.25 60.9987 30.9208 61.5847 30.3347C62.1708 29.7487 62.5 28.9538 62.5 28.125Z" fill="#DE9271"/>
<path d="M56.25 40.625C56.25 39.7962 55.9208 39.0013 55.3347 38.4153C54.7487 37.8292 53.9538 37.5 53.125 37.5H37.5C36.6712 37.5 35.8763 37.8292 35.2903 38.4153C34.7042 39.0013 34.375 39.7962 34.375 40.625C34.375 41.4538 34.7042 42.2487 35.2903 42.8347C35.8763 43.4208 36.6712 43.75 37.5 43.75H53.125C53.9538 43.75 54.7487 43.4208 55.3347 42.8347C55.9208 42.2487 56.25 41.4538 56.25 40.625Z" fill="#DE9271"/>
<path d="M37.5 75C36.6712 75 35.8763 75.3292 35.2903 75.9153C34.7042 76.5013 34.375 77.2962 34.375 78.125C34.375 78.9538 34.7042 79.7487 35.2903 80.3347C35.8763 80.9208 36.6712 81.25 37.5 81.25H43.75C44.5788 81.25 45.3737 80.9208 45.9597 80.3347C46.5458 79.7487 46.875 78.9538 46.875 78.125C46.875 77.2962 46.5458 76.5013 45.9597 75.9153C45.3737 75.3292 44.5788 75 43.75 75H37.5Z" fill="#DE9271"/>
</svg>
