<svg width="100" height="100" viewBox="0 0 100 100" fill="none" xmlns="http://www.w3.org/2000/svg">
<path d="M83.5 67.375C81.687 63.6792 80.7462 59.6166 80.75 55.5C80.75 54.6712 80.4208 53.8763 79.8348 53.2903C79.2487 52.7042 78.4538 52.375 77.625 52.375C76.7962 52.375 76.0014 52.7042 75.4153 53.2903C74.8293 53.8763 74.5 54.6712 74.5 55.5C74.4956 60.5685 75.6501 65.571 77.875 70.125L81 76.7812C81.0855 76.9227 81.1307 77.0848 81.1307 77.25C81.1307 77.4152 81.0855 77.5773 81 77.7188C80.9353 77.8443 80.8365 77.9491 80.7149 78.021C80.5932 78.0929 80.4538 78.1289 80.3125 78.125H19.5938C19.4526 78.1289 19.3131 78.0929 19.1915 78.021C19.0699 77.9491 18.971 77.8443 18.9063 77.7188C18.8208 77.5773 18.7757 77.4152 18.7757 77.25C18.7757 77.0848 18.8208 76.9227 18.9063 76.7812L22.0313 70.125C24.2563 65.571 25.4107 60.5685 25.4063 55.5V37.5C25.3775 34.243 25.9909 31.0123 27.2117 27.9927C28.4324 24.973 30.2365 22.2236 32.5206 19.9017C34.8048 17.5798 37.5243 15.7309 40.5236 14.4609C43.5228 13.1909 46.743 12.5245 50 12.5C52.8255 12.497 55.6292 12.9943 58.2813 13.9688C59.0604 14.2588 59.9228 14.2276 60.6788 13.8818C61.4348 13.536 62.0225 12.9041 62.3125 12.125C62.6026 11.3459 62.5713 10.4835 62.2256 9.72753C61.8798 8.97152 61.2479 8.38384 60.4688 8.09376C57.1139 6.87175 53.5706 6.24772 50 6.25001C41.7835 6.33252 33.9343 9.66731 28.1711 15.5243C22.4078 21.3812 19.2 29.2832 19.25 37.5V55.5C19.2539 59.6166 18.3131 63.6792 16.5 67.375L13.375 74.0312C12.8273 75.1296 12.5712 76.3503 12.6314 77.5762C12.6916 78.8021 13.066 79.9919 13.7188 81.0312C14.3383 82.0373 15.2013 82.8711 16.2281 83.4555C17.2549 84.0399 18.4125 84.3561 19.5938 84.375H37.9375C38.6572 87.023 40.2282 89.3607 42.4082 91.0273C44.5881 92.6939 47.256 93.5969 50 93.5969C52.7441 93.5969 55.4119 92.6939 57.5919 91.0273C59.7719 89.3607 61.3429 87.023 62.0625 84.375H80.4063C81.6089 84.3773 82.7919 84.0711 83.8424 83.4856C84.8929 82.9002 85.7756 82.0552 86.4063 81.0312C87.0591 79.9919 87.4335 78.8021 87.4937 77.5762C87.5539 76.3503 87.2978 75.1296 86.75 74.0312L83.5 67.375ZM50 87.5C48.9093 87.4934 47.8393 87.2015 46.8964 86.6533C45.9534 86.1051 45.1704 85.3196 44.625 84.375H55.375C54.8297 85.3196 54.0466 86.1051 53.1037 86.6533C52.1608 87.2015 51.0908 87.4934 50 87.5Z" fill="black"/>
<path d="M42.2813 19.0937C38.4994 21.0539 35.3315 24.0194 33.1261 27.6637C30.9207 31.3081 29.7633 35.4902 29.7813 39.7499C29.7813 40.5787 30.1105 41.3736 30.6966 41.9596C31.2826 42.5457 32.0775 42.8749 32.9063 42.8749C33.7351 42.8749 34.5299 42.5457 35.116 41.9596C35.702 41.3736 36.0313 40.5787 36.0313 39.7499C36.0163 36.6418 36.8568 33.5896 38.4607 30.9273C40.0647 28.2651 42.3703 26.0955 45.125 24.6562C45.4903 24.4674 45.8147 24.2085 46.0799 23.8943C46.3451 23.5802 46.5459 23.2168 46.6706 22.8251C46.7954 22.4333 46.8418 22.0209 46.8072 21.6112C46.7725 21.2015 46.6575 20.8027 46.4688 20.4374C46.28 20.0722 46.0211 19.7477 45.707 19.4825C45.3928 19.2173 45.0294 19.0166 44.6377 18.8918C44.246 18.767 43.8335 18.7206 43.4238 18.7553C43.0141 18.7899 42.6153 18.9049 42.25 19.0937H42.2813Z" fill="black"/>
<path d="M75 46.875C78.0903 46.875 81.1113 45.9586 83.6808 44.2417C86.2503 42.5248 88.253 40.0845 89.4356 37.2294C90.6182 34.3743 90.9277 31.2327 90.3248 28.2017C89.7219 25.1708 88.2337 22.3867 86.0485 20.2015C83.8634 18.0163 81.0792 16.5281 78.0483 15.9252C75.0173 15.3223 71.8757 15.6318 69.0206 16.8144C66.1655 17.997 63.7252 19.9997 62.0083 22.5692C60.2914 25.1387 59.375 28.1597 59.375 31.25C59.375 35.394 61.0212 39.3683 63.9515 42.2986C66.8817 45.2288 70.856 46.875 75 46.875ZM75 21.875C76.8542 21.875 78.6668 22.4248 80.2085 23.455C81.7502 24.4851 82.9518 25.9493 83.6614 27.6624C84.3709 29.3754 84.5566 31.2604 84.1949 33.079C83.8331 34.8976 82.9403 36.568 81.6291 37.8791C80.318 39.1903 78.6476 40.0831 76.829 40.4449C75.0104 40.8066 73.1254 40.621 71.4123 39.9114C69.6993 39.2018 68.2351 38.0002 67.205 36.4585C66.1748 34.9168 65.625 33.1042 65.625 31.25C65.625 28.7636 66.6127 26.379 68.3709 24.6209C70.129 22.8627 72.5136 21.875 75 21.875Z" fill="#DE9271"/>
</svg>
