<svg width="100" height="100" viewBox="0 0 100 100" fill="none" xmlns="http://www.w3.org/2000/svg">
<path d="M31.25 78.125C30.4212 78.125 29.6263 78.4542 29.0403 79.0403C28.4542 79.6263 28.125 80.4212 28.125 81.25C28.125 82.0788 28.4542 82.8737 29.0403 83.4597C29.6263 84.0458 30.4212 84.375 31.25 84.375H37.5C38.3288 84.375 39.1237 84.0458 39.7097 83.4597C40.2958 82.8737 40.625 82.0788 40.625 81.25C40.625 80.4212 40.2958 79.6263 39.7097 79.0403C39.1237 78.4542 38.3288 78.125 37.5 78.125H31.25Z" fill="#DE9271"/>
<path d="M88.2812 18.75H71.875C71.0462 18.75 70.2513 19.0792 69.6653 19.6653C69.0792 20.2513 68.75 21.0462 68.75 21.875C68.75 22.7038 69.0792 23.4987 69.6653 24.0847C70.2513 24.6708 71.0462 25 71.875 25H87.5V68.75H25V25H59.375C60.2038 25 60.9987 24.6708 61.5847 24.0847C62.1708 23.4987 62.5 22.7038 62.5 21.875V16.4375C62.5 15.0997 62.2365 13.7749 61.7245 12.5389C61.2126 11.3029 60.4621 10.1798 59.5162 9.23385C58.5702 8.28785 57.4471 7.53745 56.2111 7.02548C54.9751 6.51351 53.6503 6.25 52.3125 6.25H16.4375C13.7356 6.25 11.1444 7.32332 9.23385 9.23385C7.32332 11.1444 6.25 13.7356 6.25 16.4375V83.5625C6.25 86.2644 7.32332 88.8556 9.23385 90.7662C11.1444 92.6767 13.7356 93.75 16.4375 93.75H52.3125C53.6503 93.75 54.9751 93.4865 56.2111 92.9745C57.4471 92.4626 58.5702 91.7121 59.5162 90.7662C60.4621 89.8202 61.2126 88.6971 61.7245 87.4611C62.2365 86.2251 62.5 84.9003 62.5 83.5625C62.5 82.7337 62.1708 81.9388 61.5847 81.3528C60.9987 80.7667 60.2038 80.4375 59.375 80.4375C58.5462 80.4375 57.7513 80.7667 57.1653 81.3528C56.5792 81.9388 56.25 82.7337 56.25 83.5625C56.2418 84.6043 55.8244 85.601 55.0877 86.3377C54.351 87.0744 53.3543 87.4918 52.3125 87.5H16.4375C15.3957 87.4918 14.399 87.0744 13.6623 86.3377C12.9256 85.601 12.5082 84.6043 12.5 83.5625V16.4375C12.5082 15.3957 12.9256 14.399 13.6623 13.6623C14.399 12.9256 15.3957 12.5082 16.4375 12.5H52.3125C53.3543 12.5082 54.351 12.9256 55.0877 13.6623C55.8244 14.399 56.2418 15.3957 56.25 16.4375V18.75H24.2188C22.7709 18.7582 21.3846 19.337 20.3608 20.3608C19.337 21.3846 18.7582 22.7709 18.75 24.2188V69.5312C18.7582 70.9791 19.337 72.3654 20.3608 73.3892C21.3846 74.413 22.7709 74.9918 24.2188 75H88.2812C89.7291 74.9918 91.1154 74.413 92.1392 73.3892C93.163 72.3654 93.7418 70.9791 93.75 69.5312V24.2188C93.7418 22.7709 93.163 21.3846 92.1392 20.3608C91.1154 19.337 89.7291 18.7582 88.2812 18.75Z" fill="black"/>
<path d="M53.125 31.25C53.125 30.4212 52.7958 29.6263 52.2097 29.0403C51.6237 28.4542 50.8288 28.125 50 28.125H34.375C33.5462 28.125 32.7513 28.4542 32.1653 29.0403C31.5792 29.6263 31.25 30.4212 31.25 31.25V43.75C31.25 44.5788 31.5792 45.3737 32.1653 45.9597C32.7513 46.5458 33.5462 46.875 34.375 46.875H50C50.8288 46.875 51.6237 46.5458 52.2097 45.9597C52.7958 45.3737 53.125 44.5788 53.125 43.75V31.25ZM46.875 40.625H37.5V34.375H46.875V40.625Z" fill="#DE9271"/>
<path d="M81.25 31.25C81.25 30.4212 80.9208 29.6263 80.3347 29.0403C79.7487 28.4542 78.9538 28.125 78.125 28.125H62.5C61.6712 28.125 60.8763 28.4542 60.2903 29.0403C59.7042 29.6263 59.375 30.4212 59.375 31.25V43.75C59.375 44.5788 59.7042 45.3737 60.2903 45.9597C60.8763 46.5458 61.6712 46.875 62.5 46.875H78.125C78.9538 46.875 79.7487 46.5458 80.3347 45.9597C80.9208 45.3737 81.25 44.5788 81.25 43.75V31.25ZM75 40.625H65.625V34.375H75V40.625Z" fill="#DE9271"/>
<path d="M50 50H34.375C33.5462 50 32.7513 50.3292 32.1653 50.9153C31.5792 51.5013 31.25 52.2962 31.25 53.125C31.25 53.9538 31.5792 54.7487 32.1653 55.3347C32.7513 55.9208 33.5462 56.25 34.375 56.25H50C50.8288 56.25 51.6237 55.9208 52.2097 55.3347C52.7958 54.7487 53.125 53.9538 53.125 53.125C53.125 52.2962 52.7958 51.5013 52.2097 50.9153C51.6237 50.3292 50.8288 50 50 50Z" fill="#DE9271"/>
<path d="M50 59.375H34.375C33.5462 59.375 32.7513 59.7042 32.1653 60.2903C31.5792 60.8763 31.25 61.6712 31.25 62.5C31.25 63.3288 31.5792 64.1237 32.1653 64.7097C32.7513 65.2958 33.5462 65.625 34.375 65.625H50C50.8288 65.625 51.6237 65.2958 52.2097 64.7097C52.7958 64.1237 53.125 63.3288 53.125 62.5C53.125 61.6712 52.7958 60.8763 52.2097 60.2903C51.6237 59.7042 50.8288 59.375 50 59.375Z" fill="#DE9271"/>
<path d="M78.125 50H62.5C61.6712 50 60.8763 50.3292 60.2903 50.9153C59.7042 51.5013 59.375 52.2962 59.375 53.125C59.375 53.9538 59.7042 54.7487 60.2903 55.3347C60.8763 55.9208 61.6712 56.25 62.5 56.25H78.125C78.9538 56.25 79.7487 55.9208 80.3347 55.3347C80.9208 54.7487 81.25 53.9538 81.25 53.125C81.25 52.2962 80.9208 51.5013 80.3347 50.9153C79.7487 50.3292 78.9538 50 78.125 50Z" fill="#DE9271"/>
<path d="M78.125 59.375H62.5C61.6712 59.375 60.8763 59.7042 60.2903 60.2903C59.7042 60.8763 59.375 61.6712 59.375 62.5C59.375 63.3288 59.7042 64.1237 60.2903 64.7097C60.8763 65.2958 61.6712 65.625 62.5 65.625H78.125C78.9538 65.625 79.7487 65.2958 80.3347 64.7097C80.9208 64.1237 81.25 63.3288 81.25 62.5C81.25 61.6712 80.9208 60.8763 80.3347 60.2903C79.7487 59.7042 78.9538 59.375 78.125 59.375Z" fill="#DE9271"/>
</svg>
