<svg width="100" height="100" viewBox="0 0 100 100" fill="none" xmlns="http://www.w3.org/2000/svg">
<path d="M80.1562 12.5H19.8438C16.2385 12.5 12.7808 13.9322 10.2315 16.4815C7.68219 19.0308 6.25 22.4885 6.25 26.0938V73.9062C6.25 75.6914 6.60161 77.4591 7.28476 79.1084C7.96791 80.7576 8.96922 82.2562 10.2315 83.5185C11.4938 84.7808 12.9924 85.7821 14.6416 86.4652C16.2909 87.1484 18.0586 87.5 19.8438 87.5H80.1562C81.9414 87.5 83.7091 87.1484 85.3584 86.4652C87.0076 85.7821 88.5062 84.7808 89.7685 83.5185C91.0308 82.2562 92.0321 80.7576 92.7152 79.1084C93.3984 77.4591 93.75 75.6914 93.75 73.9062V26.0938C93.75 22.4885 92.3178 19.0308 89.7685 16.4815C87.2192 13.9322 83.7615 12.5 80.1562 12.5ZM87.5 73.9062C87.4918 75.8514 86.7154 77.7145 85.34 79.09C83.9645 80.4654 82.1014 81.2418 80.1562 81.25H19.8438C17.8986 81.2418 16.0355 80.4654 14.66 79.09C13.2846 77.7145 12.5082 75.8514 12.5 73.9062V26.0938C12.5082 24.1486 13.2846 22.2855 14.66 20.91C16.0355 19.5346 17.8986 18.7582 19.8438 18.75H80.1562C82.1014 18.7582 83.9645 19.5346 85.34 20.91C86.7154 22.2855 87.4918 24.1486 87.5 26.0938V73.9062Z" fill="black"/>
<path d="M67.2813 40.1559C66.7601 38.9518 65.9066 37.9211 64.8209 37.1844C63.7351 36.4477 62.462 36.0356 61.1505 35.9963C59.839 35.9569 58.5434 36.292 57.4155 36.9622C56.2875 37.6325 55.3738 38.6102 54.7813 39.7809L41.1251 65.7809L38.3126 61.6246C37.7321 60.7534 36.9595 60.0269 36.0542 59.5011C35.1489 58.9754 34.1351 58.6643 33.0907 58.5918C32.0463 58.5194 30.9992 58.6875 30.03 59.0833C29.0608 59.479 28.1953 60.0919 27.5001 60.8746L19.5626 69.7809C19.2585 70.0792 19.0186 70.4365 18.8577 70.8309C18.6967 71.2252 18.6181 71.6483 18.6266 72.0742C18.6351 72.5001 18.7306 72.9197 18.9072 73.3073C19.0838 73.6949 19.3378 74.0424 19.6536 74.3282C19.9693 74.6141 20.3402 74.8325 20.7434 74.9698C21.1466 75.1071 21.5736 75.1606 21.9982 75.1269C22.4228 75.0932 22.8361 74.973 23.2126 74.7738C23.5891 74.5746 23.9209 74.3005 24.1876 73.9684L32.2188 65.0309C32.2831 64.9557 32.366 64.8988 32.4593 64.8658C32.5525 64.8329 32.6528 64.8252 32.7501 64.8434C32.8457 64.8465 32.9389 64.874 33.0209 64.9232C33.1029 64.9725 33.171 65.0418 33.2188 65.1246L38.9688 73.6246C39.2698 74.0714 39.6812 74.4328 40.163 74.6737C40.6449 74.9147 41.1808 75.0269 41.7188 74.9996C42.2659 74.9731 42.7963 74.8032 43.257 74.507C43.7177 74.2108 44.0925 73.7988 44.3438 73.3121L60.4376 42.6871C60.4832 42.5779 60.5622 42.4859 60.6632 42.4242C60.7642 42.3625 60.8821 42.3342 61.0001 42.3434C61.1228 42.3309 61.246 42.3614 61.3487 42.4299C61.4513 42.4983 61.5269 42.6003 61.5626 42.7184L75.2813 73.1559C75.5278 73.7042 75.9271 74.1697 76.4315 74.4968C76.9359 74.8238 77.5239 74.9984 78.1251 74.9996C78.5672 74.9976 79.0039 74.9017 79.4063 74.7184C80.1594 74.3773 80.7467 73.7518 81.0396 72.9786C81.3324 72.2055 81.307 71.3478 80.9688 70.5934L67.2813 40.1559Z" fill="#DE9271"/>
<path d="M31.25 50C33.7223 50 36.139 49.2669 38.1946 47.8934C40.2502 46.5199 41.8524 44.5676 42.7985 42.2836C43.7446 39.9995 43.9921 37.4861 43.5098 35.0614C43.0275 32.6366 41.837 30.4093 40.0888 28.6612C38.3407 26.913 36.1134 25.7225 33.6886 25.2402C31.2639 24.7579 28.7505 25.0054 26.4665 25.9515C24.1824 26.8976 22.2301 28.4998 20.8566 30.5554C19.4831 32.611 18.75 35.0277 18.75 37.5C18.75 40.8152 20.067 43.9946 22.4112 46.3388C24.7554 48.683 27.9348 50 31.25 50ZM31.25 31.25C32.4861 31.25 33.6945 31.6166 34.7223 32.3033C35.7501 32.9901 36.5512 33.9662 37.0242 35.1082C37.4973 36.2503 37.6211 37.5069 37.3799 38.7193C37.1388 39.9317 36.5435 41.0453 35.6694 41.9194C34.7953 42.7935 33.6817 43.3888 32.4693 43.6299C31.2569 43.8711 30.0003 43.7473 28.8582 43.2743C27.7162 42.8012 26.7401 42.0001 26.0533 40.9723C25.3666 39.9445 25 38.7361 25 37.5C25 35.8424 25.6585 34.2527 26.8306 33.0806C28.0027 31.9085 29.5924 31.25 31.25 31.25Z" fill="#DE9271"/>
</svg>
