<svg width="100" height="100" viewBox="0 0 100 100" fill="none" xmlns="http://www.w3.org/2000/svg">
<path d="M72.75 6.25H43.75C42.9212 6.25 42.1263 6.57924 41.5403 7.16529C40.9542 7.75134 40.625 8.5462 40.625 9.375C40.625 10.2038 40.9542 10.9987 41.5403 11.5847C42.1263 12.1708 42.9212 12.5 43.75 12.5H72.75C73.3442 12.5081 73.9118 12.7477 74.332 13.168C74.7523 13.5882 74.9919 14.1558 75 14.75V85.25C74.9919 85.8442 74.7523 86.4118 74.332 86.832C73.9118 87.2523 73.3442 87.4919 72.75 87.5H68.75V81.5938C68.6436 79.1918 67.8553 76.8698 66.4773 74.8996C65.0992 72.9294 63.1885 71.3925 60.9688 70.4688C63.1852 68.2962 64.7044 65.5128 65.3327 62.4734C65.961 59.434 65.6699 56.2764 64.4966 53.4031C63.3232 50.5298 61.3208 48.071 58.7445 46.3403C56.1682 44.6096 53.1349 43.6853 50.0312 43.6853C46.9276 43.6853 43.8943 44.6096 41.318 46.3403C38.7417 48.071 36.7393 50.5298 35.5659 53.4031C34.3926 56.2764 34.1015 59.434 34.7298 62.4734C35.3581 65.5128 36.8773 68.2962 39.0938 70.4688C36.8623 71.3831 34.9385 72.916 33.5489 74.887C32.1593 76.8579 31.3617 79.1848 31.25 81.5938V87.5H27.25C26.6558 87.4919 26.0882 87.2523 25.668 86.832C25.2477 86.4118 25.0081 85.8442 25 85.25V14.75C25.0081 14.1558 25.2477 13.5882 25.668 13.168C26.0882 12.7477 26.6558 12.5081 27.25 12.5H31.25C32.0788 12.5 32.8737 12.1708 33.4597 11.5847C34.0458 10.9987 34.375 10.2038 34.375 9.375C34.375 8.5462 34.0458 7.75134 33.4597 7.16529C32.8737 6.57924 32.0788 6.25 31.25 6.25H27.25C24.9957 6.25 22.8337 7.14553 21.2396 8.73959C19.6455 10.3337 18.75 12.4957 18.75 14.75V85.25C18.75 87.5043 19.6455 89.6664 21.2396 91.2604C22.8337 92.8545 24.9957 93.75 27.25 93.75H53.125C53.9538 93.75 54.7487 93.4208 55.3347 92.8347C55.9208 92.2487 56.25 91.4538 56.25 90.625C56.25 89.7962 55.9208 89.0013 55.3347 88.4153C54.7487 87.8292 53.9538 87.5 53.125 87.5H37.5V81.5938C37.5 78.125 41.625 75 46.5313 75H53.4688C58.375 75 62.5 78.125 62.5 81.5938V90.625C62.5 91.4538 62.8292 92.2487 63.4153 92.8347C64.0013 93.4208 64.7962 93.75 65.625 93.75H72.75C75.0043 93.75 77.1664 92.8545 78.7604 91.2604C80.3545 89.6664 81.25 87.5043 81.25 85.25V14.75C81.25 12.4957 80.3545 10.3337 78.7604 8.73959C77.1664 7.14553 75.0043 6.25 72.75 6.25ZM50 50C51.8542 50 53.6668 50.5498 55.2085 51.58C56.7502 52.6101 57.9518 54.0743 58.6614 55.7873C59.3709 57.5004 59.5566 59.3854 59.1949 61.204C58.8331 63.0225 57.9402 64.693 56.6291 66.0041C55.318 67.3152 53.6475 68.2081 51.829 68.5699C50.0104 68.9316 48.1254 68.7459 46.4123 68.0364C44.6993 67.3268 43.2351 66.1252 42.205 64.5835C41.1748 63.0418 40.625 61.2292 40.625 59.375C40.625 56.8886 41.6127 54.504 43.3709 52.7459C45.129 50.9877 47.5136 50 50 50Z" fill="black"/>
<path d="M56.25 18.75H43.75C42.9212 18.75 42.1263 19.0792 41.5403 19.6653C40.9542 20.2513 40.625 21.0462 40.625 21.875C40.625 22.7038 40.9542 23.4987 41.5403 24.0847C42.1263 24.6708 42.9212 25 43.75 25H56.25C57.0788 25 57.8737 24.6708 58.4597 24.0847C59.0458 23.4987 59.375 22.7038 59.375 21.875C59.375 21.0462 59.0458 20.2513 58.4597 19.6653C57.8737 19.0792 57.0788 18.75 56.25 18.75Z" fill="#DE9271"/>
<path d="M31.25 31.25C31.25 32.0788 31.5792 32.8737 32.1653 33.4597C32.7513 34.0458 33.5462 34.375 34.375 34.375H65.625C66.4538 34.375 67.2487 34.0458 67.8347 33.4597C68.4208 32.8737 68.75 32.0788 68.75 31.25C68.75 30.4212 68.4208 29.6263 67.8347 29.0403C67.2487 28.4542 66.4538 28.125 65.625 28.125H34.375C33.5462 28.125 32.7513 28.4542 32.1653 29.0403C31.5792 29.6263 31.25 30.4212 31.25 31.25Z" fill="#DE9271"/>
</svg>
