<svg width="100" height="100" viewBox="0 0 100 100" fill="none" xmlns="http://www.w3.org/2000/svg">
<path d="M90.625 21.8753C89.7962 21.8753 89.0013 22.2045 88.4153 22.7906C87.8292 23.3766 87.5 24.1715 87.5 25.0003V30.719C87.2611 30.7449 87.0201 30.7449 86.7813 30.719H85.0937C84.8549 30.7449 84.6139 30.7449 84.375 30.719V12.5003C84.6128 12.4589 84.856 12.4589 85.0937 12.5003H86.7813C87.0195 12.4648 87.2617 12.4648 87.5 12.5003C87.5995 13.3291 88.0241 14.0844 88.6805 14.6002C89.3368 15.1159 90.1712 15.3498 91 15.2503C91.8288 15.1508 92.5841 14.7262 93.0999 14.0698C93.6156 13.4135 93.8495 12.5791 93.75 11.7503C93.6571 10.9302 93.4026 10.1365 93.0013 9.41527C92.5999 8.69401 92.0597 8.05938 91.4118 7.54802C90.7639 7.03666 90.0211 6.65871 89.2263 6.43597C88.4316 6.21323 87.6005 6.15013 86.7813 6.2503H85.0937C84.265 6.15069 83.4246 6.21813 82.6223 6.44862C81.82 6.6791 81.072 7.06798 80.4224 7.59229C79.7729 8.11659 79.2349 8.76571 78.8403 9.50132C78.4457 10.2369 78.2025 11.0441 78.125 11.8753V31.4065C78.1986 32.2404 78.439 33.0511 78.8318 33.7903C79.2247 34.5295 79.7621 35.1823 80.4121 35.7098C81.062 36.2374 81.8114 36.629 82.6156 36.8614C83.4198 37.0938 84.2625 37.1623 85.0937 37.0628H86.7813C87.6125 37.1623 88.4552 37.0938 89.2594 36.8614C90.0636 36.629 90.813 36.2374 91.4629 35.7098C92.1129 35.1823 92.6503 34.5295 93.0432 33.7903C93.436 33.0511 93.6764 32.2404 93.75 31.4065V25.0003C93.75 24.1715 93.4208 23.3766 92.8347 22.7906C92.2487 22.2045 91.4538 21.8753 90.625 21.8753Z" fill="black"/>
<path d="M46.4999 15.6265H71.8749C72.7037 15.6265 73.4986 15.2973 74.0846 14.7113C74.6707 14.1252 74.9999 13.3303 74.9999 12.5015C74.9999 11.6727 74.6707 10.8779 74.0846 10.2918C73.4986 9.70579 72.7037 9.37655 71.8749 9.37655H46.4999C45.0465 9.34421 43.6273 9.81954 42.4865 10.7207C41.3457 11.6219 40.5548 12.8926 40.2499 14.314L37.4999 28.8453C37.3767 29.5537 37.4138 30.2808 37.6085 30.973C37.8031 31.6652 38.1505 32.305 38.6249 32.8453C39.1719 33.4846 39.8532 33.9953 40.6202 34.341C41.3873 34.6867 42.2212 34.8589 43.0624 34.8453H47.6874L45.6561 40.6265C45.4433 41.3119 45.3975 42.0383 45.5225 42.745C45.6476 43.4517 45.9398 44.1183 46.3749 44.689C46.8762 45.3473 47.5243 45.8794 48.2676 46.2429C49.0109 46.6064 49.8288 46.7913 50.6561 46.7828H56.2499C57.2372 46.8051 58.2106 46.5468 59.057 46.0378C59.9033 45.5289 60.5879 44.7903 61.0312 43.9078L64.1562 37.6578C64.7234 36.7111 65.5383 35.9371 66.5131 35.4195C67.4878 34.9018 68.5854 34.6601 69.6874 34.7203H71.8749C72.7037 34.7203 73.4986 34.3911 74.0846 33.805C74.6707 33.219 74.9999 32.4241 74.9999 31.5953C74.9999 30.7665 74.6707 29.9716 74.0846 29.3856C73.4986 28.7995 72.7037 28.4703 71.8749 28.4703H69.6874C67.3952 28.386 65.1263 28.9552 63.1454 30.1117C61.1645 31.2681 59.5534 32.964 58.4999 35.0015L55.8124 40.6265H52.3124L54.2187 35.2828C54.4497 34.5445 54.4993 33.7613 54.3633 32.9997C54.2273 32.2381 53.9097 31.5205 53.4374 30.9078C52.886 30.1807 52.172 29.5928 51.3526 29.1912C50.5332 28.7897 49.6311 28.5856 48.7187 28.5953H43.9687L46.2187 15.6265H46.4999Z" fill="black"/>
<path d="M14.9062 62.9365H13.2187C12.3753 62.8371 11.5205 62.9107 10.7065 63.1527C9.89252 63.3947 9.13637 63.8 8.48422 64.3439C7.83208 64.8879 7.29762 65.559 6.91348 66.3164C6.52934 67.0737 6.30357 67.9015 6.24996 68.749V74.999C6.24996 75.8278 6.5792 76.6226 7.16525 77.2087C7.7513 77.7947 8.54616 78.124 9.37496 78.124C10.2038 78.124 10.9986 77.7947 11.5847 77.2087C12.1707 76.6226 12.5 75.8278 12.5 74.999V69.2802C12.7388 69.2544 12.9798 69.2544 13.2187 69.2802H14.9062C15.1451 69.2544 15.3861 69.2544 15.625 69.2802V87.499C15.3872 87.5404 15.144 87.5404 14.9062 87.499H13.2187C12.9804 87.5345 12.7382 87.5345 12.5 87.499C12.4507 87.0886 12.3211 86.6919 12.1186 86.3316C11.916 85.9713 11.6445 85.6545 11.3195 85.3991C10.9945 85.1438 10.6224 84.9549 10.2244 84.8434C9.8264 84.7318 9.41034 84.6997 8.99996 84.749C8.58958 84.7982 8.19292 84.9278 7.83262 85.1304C7.47232 85.3329 7.15545 85.6044 6.90009 85.9294C6.64472 86.2544 6.45588 86.6266 6.34433 87.0246C6.23278 87.4225 6.20071 87.8386 6.24996 88.249C6.34291 89.0691 6.59738 89.8627 6.9987 90.584C7.40002 91.3053 7.94023 91.9399 8.58814 92.4513C9.23606 92.9626 9.97884 93.3406 10.7736 93.5633C11.5684 93.7861 12.3994 93.8492 13.2187 93.749H14.9062C15.735 93.8486 16.5754 93.7812 17.3777 93.5507C18.18 93.3202 18.928 92.9313 19.5775 92.407C20.2271 91.8827 20.7651 91.2336 21.1596 90.498C21.5542 89.7623 21.7974 88.9551 21.875 88.124V68.749C21.8213 67.9015 21.5956 67.0737 21.2114 66.3164C20.8273 65.559 20.2928 64.8879 19.6407 64.3439C18.9886 63.8 18.2324 63.3947 17.4184 63.1527C16.6044 62.9107 15.7496 62.8371 14.9062 62.9365Z" fill="#DE9271"/>
<path d="M56.875 65.1576H52.25L54.3437 59.3763C54.5566 58.6909 54.6024 57.9646 54.4774 57.2579C54.3523 56.5512 54.0601 55.8846 53.625 55.3138C53.1336 54.6383 52.4899 54.0881 51.746 53.7081C51.0021 53.328 50.1791 53.1287 49.3437 53.1263H43.75C42.7627 53.104 41.7893 53.3624 40.9429 53.8713C40.0966 54.3802 39.412 55.1188 38.9688 56.0013L35.8438 62.2513C35.2765 63.1981 34.4616 63.972 33.4868 64.4896C32.5121 65.0073 31.4145 65.2491 30.3125 65.1888H28.125C27.2962 65.1888 26.5013 65.5181 25.9153 66.1041C25.3292 66.6902 25 67.485 25 68.3138C25 69.1426 25.3292 69.9375 25.9153 70.5235C26.5013 71.1096 27.2962 71.4388 28.125 71.4388H30.3125C32.6047 71.5232 34.8736 70.9539 36.8545 69.7975C38.8354 68.641 40.4465 66.9451 41.5 64.9076L44.1875 59.3763H47.6875L45.7812 64.7201C45.5502 65.4584 45.5006 66.2416 45.6366 67.0032C45.7726 67.7648 46.0902 68.4823 46.5625 69.0951C47.1139 69.8222 47.8279 70.4101 48.6473 70.8117C49.4667 71.2132 50.3688 71.4173 51.2812 71.4076H56.0312L53.7812 84.3763H53.5H28.125C27.2962 84.3763 26.5013 84.7056 25.9153 85.2916C25.3292 85.8777 25 86.6725 25 87.5013C25 88.3301 25.3292 89.125 25.9153 89.711C26.5013 90.2971 27.2962 90.6263 28.125 90.6263H53.5C54.9534 90.6587 56.3726 90.1833 57.5134 89.2821C58.6542 88.3809 59.4451 87.1103 59.75 85.6888L62.5 71.1576C62.6232 70.4492 62.5861 69.7221 62.3914 69.0299C62.1968 68.3377 61.8494 67.6979 61.375 67.1576C60.8213 66.5101 60.1299 65.9944 59.3513 65.6484C58.5727 65.3024 57.7267 65.1347 56.875 65.1576Z" fill="#DE9271"/>
</svg>
