<svg width="1307" height="424" viewBox="0 0 1307 424" fill="none" xmlns="http://www.w3.org/2000/svg">
<circle opacity="0.4" cx="57" cy="121" r="110" fill="#DE9271"/>
<circle opacity="0.4" cx="1038" cy="20" r="20" fill="#DE9271"/>
<circle opacity="0.4" cx="272" cy="298" r="10" fill="#ACD9E3"/>
<circle opacity="0.4" cx="1243" cy="349" r="75" fill="#ACD9E3"/>
<path opacity="0.4" d="M1228.14 148.09H1215.29V135.507C1215.29 133.963 1214.01 132.711 1212.43 132.711H1209.57C1207.99 132.711 1206.71 133.963 1206.71 135.507V148.09H1193.86C1192.28 148.09 1191 149.342 1191 150.886V153.682C1191 155.226 1192.28 156.479 1193.86 156.479H1206.71V169.061C1206.71 170.605 1207.99 171.858 1209.57 171.858H1212.43C1214.01 171.858 1215.29 170.605 1215.29 169.061V156.479H1228.14C1229.72 156.479 1231 155.226 1231 153.682V150.886C1231 149.342 1229.72 148.09 1228.14 148.09Z" fill="#ACD9E3"/>
<path opacity="0.4" d="M1022.14 363.396H987.857C986.279 363.396 985 364.649 985 366.193V368.989C985 370.533 986.279 371.785 987.857 371.785H1022.14C1023.72 371.785 1025 370.533 1025 368.989V366.193C1025 364.649 1023.72 363.396 1022.14 363.396Z" fill="#DE9271"/>
<path opacity="0.4" d="M162.143 259.845H149.286V247.262C149.286 245.718 148.006 244.466 146.429 244.466H143.571C141.994 244.466 140.714 245.718 140.714 247.262V259.845H127.857C126.279 259.845 125 261.097 125 262.641V265.437C125 266.981 126.279 268.233 127.857 268.233H140.714V280.816C140.714 282.36 141.994 283.612 143.571 283.612H146.429C148.006 283.612 149.286 282.36 149.286 280.816V268.233H162.143C163.721 268.233 165 266.981 165 265.437V262.641C165 261.097 163.721 259.845 162.143 259.845Z" fill="#ACD9E3"/>
<path opacity="0.4" d="M321.714 34.0686H302.429V15.1943C302.429 12.8783 300.509 11 298.143 11H293.857C291.491 11 289.571 12.8783 289.571 15.1943V34.0686H270.286C267.919 34.0686 266 35.9468 266 38.2629V42.4571C266 44.7732 267.919 46.6514 270.286 46.6514H289.571V65.5257C289.571 67.8417 291.491 69.72 293.857 69.72H298.143C300.509 69.72 302.429 67.8417 302.429 65.5257V46.6514H321.714C324.081 46.6514 326 44.7732 326 42.4571V38.2629C326 35.9468 324.081 34.0686 321.714 34.0686Z" fill="#ACD9E3"/>
<path opacity="0.4" d="M234.143 70.1699H199.857C198.279 70.1699 197 71.4221 197 72.9661V75.7623C197 77.3063 198.279 78.5585 199.857 78.5585H234.143C235.721 78.5585 237 77.3063 237 75.7623V72.9661C237 71.4221 235.721 70.1699 234.143 70.1699Z" fill="#DE9271"/>
<path opacity="0.4" d="M1199.71 244H1148.29C1145.92 244 1144 245.878 1144 248.194V252.389C1144 254.705 1145.92 256.583 1148.29 256.583H1199.71C1202.08 256.583 1204 254.705 1204 252.389V248.194C1204 245.878 1202.08 244 1199.71 244Z" fill="#DE9271"/>
</svg>
