<svg width="1371" height="424" viewBox="0 0 1371 424" fill="none" xmlns="http://www.w3.org/2000/svg">
<circle opacity="0.4" cx="110" cy="121" r="110" fill="#DE9271"/>
<circle opacity="0.4" cx="1091" cy="20" r="20" fill="#DE9271"/>
<circle opacity="0.4" cx="325" cy="298" r="10" fill="#ACD9E3"/>
<circle opacity="0.4" cx="1296" cy="349" r="75" fill="#ACD9E3"/>
<path opacity="0.4" d="M1281.14 148.09H1268.29V135.507C1268.29 133.963 1267.01 132.711 1265.43 132.711H1262.57C1260.99 132.711 1259.71 133.963 1259.71 135.507V148.09H1246.86C1245.28 148.09 1244 149.342 1244 150.886V153.682C1244 155.226 1245.28 156.479 1246.86 156.479H1259.71V169.061C1259.71 170.605 1260.99 171.858 1262.57 171.858H1265.43C1267.01 171.858 1268.29 170.605 1268.29 169.061V156.479H1281.14C1282.72 156.479 1284 155.226 1284 153.682V150.886C1284 149.342 1282.72 148.09 1281.14 148.09Z" fill="#ACD9E3"/>
<path opacity="0.4" d="M1075.14 363.396H1040.86C1039.28 363.396 1038 364.649 1038 366.193V368.989C1038 370.533 1039.28 371.785 1040.86 371.785H1075.14C1076.72 371.785 1078 370.533 1078 368.989V366.193C1078 364.649 1076.72 363.396 1075.14 363.396Z" fill="#DE9271"/>
<path opacity="0.4" d="M215.143 259.845H202.286V247.262C202.286 245.718 201.006 244.466 199.429 244.466H196.571C194.994 244.466 193.714 245.718 193.714 247.262V259.845H180.857C179.279 259.845 178 261.097 178 262.641V265.437C178 266.981 179.279 268.233 180.857 268.233H193.714V280.816C193.714 282.36 194.994 283.612 196.571 283.612H199.429C201.006 283.612 202.286 282.36 202.286 280.816V268.233H215.143C216.721 268.233 218 266.981 218 265.437V262.641C218 261.097 216.721 259.845 215.143 259.845Z" fill="#ACD9E3"/>
<path opacity="0.4" d="M374.714 34.0686H355.429V15.1943C355.429 12.8783 353.509 11 351.143 11H346.857C344.491 11 342.571 12.8783 342.571 15.1943V34.0686H323.286C320.919 34.0686 319 35.9468 319 38.2629V42.4571C319 44.7732 320.919 46.6514 323.286 46.6514H342.571V65.5257C342.571 67.8417 344.491 69.72 346.857 69.72H351.143C353.509 69.72 355.429 67.8417 355.429 65.5257V46.6514H374.714C377.081 46.6514 379 44.7732 379 42.4571V38.2629C379 35.9468 377.081 34.0686 374.714 34.0686Z" fill="#ACD9E3"/>
<path opacity="0.4" d="M287.143 70.1699H252.857C251.279 70.1699 250 71.4221 250 72.9661V75.7623C250 77.3063 251.279 78.5585 252.857 78.5585H287.143C288.721 78.5585 290 77.3063 290 75.7623V72.9661C290 71.4221 288.721 70.1699 287.143 70.1699Z" fill="#DE9271"/>
<path opacity="0.4" d="M1252.71 244H1201.29C1198.92 244 1197 245.878 1197 248.194V252.389C1197 254.705 1198.92 256.583 1201.29 256.583H1252.71C1255.08 256.583 1257 254.705 1257 252.389V248.194C1257 245.878 1255.08 244 1252.71 244Z" fill="#DE9271"/>
</svg>
