<svg width="90" height="39" viewBox="0 0 90 39" fill="none" xmlns="http://www.w3.org/2000/svg">
<path d="M8.17917 29.5195C7.10161 29.5195 6.09493 29.3503 5.15915 29.0117C4.25173 28.6449 3.45773 28.1511 2.77716 27.5304C2.12495 26.9097 1.60035 26.1761 1.20335 25.3297C0.834711 24.4832 0.650391 23.5663 0.650391 22.5787C0.650391 21.5348 0.877247 20.5896 1.33096 19.7432C1.78467 18.8967 2.4227 18.1632 3.24506 17.5424C4.09577 16.9217 5.08826 16.4421 6.22254 16.1035C7.38518 15.7649 8.66124 15.5956 10.0507 15.5956C11.0999 15.5956 12.135 15.6944 13.1558 15.8919C14.1767 16.0612 15.0983 16.301 15.9206 16.6114V15.0878C15.9206 13.4513 15.4527 12.1817 14.517 11.2788C13.5812 10.3477 12.2342 9.88217 10.4761 9.88217C9.2851 9.88217 8.10828 10.1079 6.94564 10.5593C5.81136 10.9825 4.63455 11.6033 3.4152 12.4215L1.96899 9.45895C4.83305 7.54035 7.81053 6.58105 10.9014 6.58105C13.964 6.58105 16.346 7.35696 18.0474 8.90876C19.7488 10.4606 20.5995 12.6895 20.5995 15.5956V23.5945C20.5995 24.582 21.0107 25.0899 21.8331 25.1181V29.0963C21.3794 29.181 20.9824 29.2374 20.6421 29.2656C20.3301 29.2938 20.0182 29.3079 19.7063 29.3079C18.7989 29.3079 18.0899 29.0822 17.5795 28.6308C17.0974 28.1794 16.7997 27.601 16.6863 26.8956L16.5587 25.499C15.5662 26.7968 14.3326 27.7985 12.8581 28.5038C11.4119 29.181 9.85223 29.5195 8.17917 29.5195ZM9.45524 26.0915C10.5895 26.0915 11.6529 25.894 12.6454 25.499C13.6662 25.0757 14.4602 24.4973 15.0274 23.7638C15.6229 23.2559 15.9206 22.7198 15.9206 22.1555V19.2353C15.1266 18.925 14.2759 18.6851 13.3685 18.5158C12.4894 18.3466 11.6245 18.2619 10.7738 18.2619C9.10078 18.2619 7.72546 18.6287 6.6479 19.3623C5.59869 20.0676 5.07408 21.0128 5.07408 22.1978C5.07408 23.2982 5.48526 24.2293 6.30761 24.9911C7.12996 25.7247 8.17917 26.0915 9.45524 26.0915Z" fill="#5B5B5B"/>
<path d="M38.7815 10.9825C36.9666 11.039 35.3503 11.4622 33.9324 12.2522C32.5429 13.014 31.5504 14.1144 30.9549 15.5533V29.0963H26.276V6.96195H30.6146V11.9136C31.3803 10.39 32.3728 9.1768 33.5921 8.27393C34.8398 7.34285 36.1726 6.83499 37.5905 6.75034C37.874 6.75034 38.1009 6.75034 38.271 6.75034C38.4695 6.75034 38.6397 6.76445 38.7815 6.79267V10.9825Z" fill="#5B5B5B"/>
<path d="M49.8686 29.3079C48.3657 29.3079 46.9904 29.0117 45.7427 28.4192C44.495 27.7985 43.4174 26.9661 42.51 25.9222C41.6309 24.8782 40.9362 23.6791 40.4257 22.3248C39.9437 20.9705 39.7026 19.5457 39.7026 18.0503C39.7026 16.4703 39.9578 14.989 40.4683 13.6065C40.9787 12.1958 41.6876 10.9825 42.595 9.96681C43.5025 8.92287 44.58 8.10465 45.8277 7.51214C47.1038 6.89142 48.5075 6.58105 50.0387 6.58105C51.8252 6.58105 53.3849 7.00428 54.7177 7.85072C56.0788 8.69715 57.1989 9.79752 58.078 11.1518V6.96195H62.2039V28.4615C62.2039 30.0697 61.9061 31.4946 61.3106 32.736C60.7152 33.9775 59.8786 35.0214 58.8011 35.8678C57.7518 36.7425 56.5041 37.4055 55.0579 37.857C53.6117 38.3084 52.0521 38.5341 50.379 38.5341C47.912 38.5341 45.8561 38.1109 44.2114 37.2645C42.595 36.4462 41.2339 35.2894 40.128 33.7941L42.7652 31.3394C43.6159 32.5244 44.7076 33.4273 46.0404 34.048C47.4015 34.6687 48.8478 34.9791 50.379 34.9791C51.3432 34.9791 52.2506 34.8521 53.1013 34.5982C53.9804 34.3442 54.746 33.9492 55.3982 33.4132C56.0504 32.8771 56.5609 32.1999 56.9295 31.3817C57.3265 30.5635 57.525 29.5901 57.525 28.4615V25.0757C56.731 26.43 55.6393 27.474 54.2498 28.2076C52.8603 28.9411 51.3999 29.3079 49.8686 29.3079ZM51.3999 25.5413C52.1088 25.5413 52.7894 25.4284 53.4416 25.2027C54.0938 24.9488 54.6893 24.6243 55.2281 24.2293C55.7952 23.8061 56.2773 23.3405 56.6743 22.8327C57.0713 22.2966 57.3549 21.7323 57.525 21.1398V15.3417C57.2414 14.6363 56.8728 14.0015 56.4191 13.4372C55.9654 12.8447 55.4408 12.3368 54.8453 11.9136C54.2781 11.4904 53.6684 11.1659 53.0162 10.9402C52.364 10.6863 51.7118 10.5593 51.0596 10.5593C50.0387 10.5593 49.1171 10.785 48.2948 11.2365C47.5008 11.6597 46.8202 12.2381 46.2531 12.9717C45.686 13.677 45.2464 14.4812 44.9345 15.384C44.6226 16.2869 44.4666 17.218 44.4666 18.1773C44.4666 19.193 44.6367 20.1523 44.977 21.0552C45.3457 21.9298 45.8419 22.7057 46.4658 23.3829C47.0896 24.0318 47.8127 24.5538 48.6351 24.9488C49.4858 25.3438 50.4074 25.5413 51.3999 25.5413Z" fill="#5B5B5B"/>
<path d="M74.6628 29.5195C72.3375 29.5195 70.5794 28.7719 69.3884 27.2765C68.1974 25.7529 67.6019 23.4957 67.6019 20.505V6.96195H72.2808V19.5739C72.2808 23.5522 73.6987 25.5413 76.5344 25.5413C77.8671 25.5413 79.129 25.1322 80.32 24.3139C81.511 23.4957 82.4326 22.3107 83.0848 20.7589V6.96195H87.7637V23.5945C87.7637 24.1306 87.8488 24.5115 88.0189 24.7372C88.2174 24.9629 88.5577 25.0899 89.0398 25.1181V29.0963C88.5577 29.181 88.1607 29.2374 87.8488 29.2656C87.5369 29.2938 87.2391 29.3079 86.9556 29.3079C86.1049 29.3079 85.3817 29.0822 84.7862 28.6308C84.1908 28.1511 83.8788 27.5445 83.8505 26.8109L83.7654 24.6102C82.7729 26.2184 81.4827 27.4458 79.8947 28.2922C78.3067 29.1104 76.5627 29.5195 74.6628 29.5195Z" fill="#5B5B5B"/>
<path d="M0 33.3291H37.7502V37.0323H0V33.3291Z" fill="#4F936C"/>
<path d="M63.8027 33.3291H89.8557V37.0323H63.8027V33.3291Z" fill="#AC5858"/>
<path d="M0 0H89.8562V3.70317H0V0Z" fill="#5C7098"/>
</svg>
