<svg width="1307" height="350" viewBox="0 0 1307 350" fill="none" xmlns="http://www.w3.org/2000/svg">
<g clip-path="url(#clip0)">
<circle opacity="0.2" cx="69" cy="85" r="110" fill="#DE9271"/>
<circle opacity="0.2" cx="477" cy="425" r="200" fill="#DE9271"/>
<circle opacity="0.2" cx="1307" cy="221" r="110" fill="#ACD9E3"/>
<path opacity="0.2" d="M154.571 141.5H148.143V135.364C148.143 134.611 147.503 134 146.714 134H145.286C144.497 134 143.857 134.611 143.857 135.364V141.5H137.429C136.64 141.5 136 142.111 136 142.864V144.227C136 144.98 136.64 145.591 137.429 145.591H143.857V151.727C143.857 152.48 144.497 153.091 145.286 153.091H146.714C147.503 153.091 148.143 152.48 148.143 151.727V145.591H154.571C155.36 145.591 156 144.98 156 144.227V142.864C156 142.111 155.36 141.5 154.571 141.5Z" fill="#ACD9E3"/>
<path opacity="0.2" d="M1166.14 285H1153.29V272.727C1153.29 271.221 1152.01 270 1150.43 270H1147.57C1145.99 270 1144.71 271.221 1144.71 272.727V285H1131.86C1130.28 285 1129 286.221 1129 287.727V290.455C1129 291.961 1130.28 293.182 1131.86 293.182H1144.71V305.455C1144.71 306.961 1145.99 308.182 1147.57 308.182H1150.43C1152.01 308.182 1153.29 306.961 1153.29 305.455V293.182H1166.14C1167.72 293.182 1169 291.961 1169 290.455V287.727C1169 286.221 1167.72 285 1166.14 285Z" fill="#ACD9E3"/>
<path opacity="0.2" d="M1267.71 88.5H1248.43V70.0909C1248.43 67.832 1246.51 66 1244.14 66H1239.86C1237.49 66 1235.57 67.832 1235.57 70.0909V88.5H1216.29C1213.92 88.5 1212 90.332 1212 92.5909V96.6818C1212 98.9408 1213.92 100.773 1216.29 100.773H1235.57V119.182C1235.57 121.441 1237.49 123.273 1239.86 123.273H1244.14C1246.51 123.273 1248.43 121.441 1248.43 119.182V100.773H1267.71C1270.08 100.773 1272 98.9408 1272 96.6818V92.5909C1272 90.332 1270.08 88.5 1267.71 88.5Z" fill="#ACD9E3"/>
<path opacity="0.2" d="M72.8571 273.5H40.7143V242.818C40.7143 239.053 37.5156 236 33.5714 236H26.4286C22.4844 236 19.2857 239.053 19.2857 242.818V273.5H-12.8571C-16.8013 273.5 -20 276.553 -20 280.318V287.136C-20 290.901 -16.8013 293.955 -12.8571 293.955H19.2857V324.636C19.2857 328.401 22.4844 331.455 26.4286 331.455H33.5714C37.5156 331.455 40.7143 328.401 40.7143 324.636V293.955H72.8571C76.8013 293.955 80 290.901 80 287.136V280.318C80 276.553 76.8013 273.5 72.8571 273.5Z" fill="#ACD9E3"/>
<path opacity="0.2" d="M308.143 315H295.286V302.727C295.286 301.221 294.006 300 292.429 300H289.571C287.994 300 286.714 301.221 286.714 302.727V315H273.857C272.279 315 271 316.221 271 317.727V320.455C271 321.961 272.279 323.182 273.857 323.182H286.714V335.455C286.714 336.961 287.994 338.182 289.571 338.182H292.429C294.006 338.182 295.286 336.961 295.286 335.455V323.182H308.143C309.721 323.182 311 321.961 311 320.455V317.727C311 316.221 309.721 315 308.143 315Z" fill="#ACD9E3"/>
<path opacity="0.2" d="M185.143 17H150.857C149.279 17 148 18.2213 148 19.7273V22.4545C148 23.9605 149.279 25.1818 150.857 25.1818H185.143C186.721 25.1818 188 23.9605 188 22.4545V19.7273C188 18.2213 186.721 17 185.143 17Z" fill="#DE9271"/>
<path opacity="0.2" d="M1126.14 134H1091.86C1090.28 134 1089 135.221 1089 136.727V139.455C1089 140.961 1090.28 142.182 1091.86 142.182H1126.14C1127.72 142.182 1129 140.961 1129 139.455V136.727C1129 135.221 1127.72 134 1126.14 134Z" fill="#DE9271"/>
<path opacity="0.2" d="M1271.29 177H1262.71C1262.32 177 1262 177.305 1262 177.682V178.364C1262 178.74 1262.32 179.045 1262.71 179.045H1271.29C1271.68 179.045 1272 178.74 1272 178.364V177.682C1272 177.305 1271.68 177 1271.29 177Z" fill="#DE9271"/>
<path opacity="0.2" d="M1005.57 252H988.429C987.64 252 987 252.611 987 253.364V254.727C987 255.48 987.64 256.091 988.429 256.091H1005.57C1006.36 256.091 1007 255.48 1007 254.727V253.364C1007 252.611 1006.36 252 1005.57 252Z" fill="#DE9271"/>
<path opacity="0.2" d="M206.571 202H189.429C188.64 202 188 202.611 188 203.364V204.727C188 205.48 188.64 206.091 189.429 206.091H206.571C207.36 206.091 208 205.48 208 204.727V203.364C208 202.611 207.36 202 206.571 202Z" fill="#DE9271"/>
<circle opacity="0.1" cx="942" cy="-114" r="300" fill="#ACD9E3"/>
</g>
<defs>
<clipPath id="clip0">
<rect width="1307" height="350" fill="white"/>
</clipPath>
</defs>
</svg>
