<svg width="1479" height="371" viewBox="0 0 1479 371" fill="none" xmlns="http://www.w3.org/2000/svg">
<circle opacity="0.4" cx="939" cy="25" r="20" fill="#DE9271"/>
<circle opacity="0.4" cx="78" cy="258" r="10" fill="#ACD9E3"/>
<circle opacity="0.4" cx="1329" cy="161" r="150" fill="#ACD9E3"/>
<circle opacity="0.4" cx="110" cy="135" r="110" fill="#DE9271"/>
<path opacity="0.4" d="M898.143 234.379H885.286V221.796C885.286 220.252 884.006 219 882.429 219H879.571C877.994 219 876.714 220.252 876.714 221.796V234.379H863.857C862.279 234.379 861 235.631 861 237.175V239.971C861 241.515 862.279 242.768 863.857 242.768H876.714V255.35C876.714 256.894 877.994 258.147 879.571 258.147H882.429C884.006 258.147 885.286 256.894 885.286 255.35V242.768H898.143C899.721 242.768 901 241.515 901 239.971V237.175C901 235.631 899.721 234.379 898.143 234.379Z" fill="#ACD9E3"/>
<path opacity="0.4" d="M938.143 347H903.857C902.279 347 901 348.252 901 349.796V352.592C901 354.136 902.279 355.389 903.857 355.389H938.143C939.721 355.389 941 354.136 941 352.592V349.796C941 348.252 939.721 347 938.143 347Z" fill="#DE9271"/>
<path opacity="0.4" d="M215.143 273.845H202.286V261.262C202.286 259.718 201.006 258.466 199.429 258.466H196.571C194.994 258.466 193.714 259.718 193.714 261.262V273.845H180.857C179.279 273.845 178 275.097 178 276.641V279.437C178 280.981 179.279 282.233 180.857 282.233H193.714V294.816C193.714 296.36 194.994 297.612 196.571 297.612H199.429C201.006 297.612 202.286 296.36 202.286 294.816V282.233H215.143C216.721 282.233 218 280.981 218 279.437V276.641C218 275.097 216.721 273.845 215.143 273.845Z" fill="#ACD9E3"/>
<path opacity="0.4" d="M432.714 23.0686H413.429V4.19429C413.429 1.87825 411.509 0 409.143 0H404.857C402.491 0 400.571 1.87825 400.571 4.19429V23.0686H381.286C378.919 23.0686 377 24.9468 377 27.2629V31.4571C377 33.7732 378.919 35.6514 381.286 35.6514H400.571V54.5257C400.571 56.8417 402.491 58.72 404.857 58.72H409.143C411.509 58.72 413.429 56.8417 413.429 54.5257V35.6514H432.714C435.081 35.6514 437 33.7732 437 31.4571V27.2629C437 24.9468 435.081 23.0686 432.714 23.0686Z" fill="#ACD9E3"/>
<path opacity="0.4" d="M224.143 25H189.857C188.279 25 187 26.2522 187 27.7962V30.5924C187 32.1364 188.279 33.3886 189.857 33.3886H224.143C225.721 33.3886 227 32.1364 227 30.5924V27.7962C227 26.2522 225.721 25 224.143 25Z" fill="#DE9271"/>
<path opacity="0.4" d="M1265.71 334H1214.29C1211.92 334 1210 335.878 1210 338.194V342.389C1210 344.705 1211.92 346.583 1214.29 346.583H1265.71C1268.08 346.583 1270 344.705 1270 342.389V338.194C1270 335.878 1268.08 334 1265.71 334Z" fill="#DE9271"/>
</svg>
