<svg width="576" height="246" viewBox="0 0 576 246" fill="none" xmlns="http://www.w3.org/2000/svg">
<circle opacity="0.4" cx="70" cy="70" r="70" fill="#DE9271"/>
<circle opacity="0.4" cx="501" cy="171" r="75" fill="#ACD9E3"/>
<path opacity="0.4" d="M177.143 15.379H164.286V2.79619C164.286 1.25217 163.006 0 161.429 0H158.571C156.994 0 155.714 1.25217 155.714 2.79619V15.379H142.857C141.279 15.379 140 16.6312 140 18.1752V20.9714C140 22.5154 141.279 23.7676 142.857 23.7676H155.714V36.3505C155.714 37.8945 156.994 39.1467 158.571 39.1467H161.429C163.006 39.1467 164.286 37.8945 164.286 36.3505V23.7676H177.143C178.721 23.7676 180 22.5154 180 20.9714V18.1752C180 16.6312 178.721 15.379 177.143 15.379Z" fill="#ACD9E3"/>
<path opacity="0.4" d="M479.143 6H444.857C443.279 6 442 7.25217 442 8.79619V11.5924C442 13.1364 443.279 14.3886 444.857 14.3886H479.143C480.721 14.3886 482 13.1364 482 11.5924V8.79619C482 7.25217 480.721 6 479.143 6Z" fill="#DE9271"/>
</svg>
