<svg width="982" height="389" viewBox="0 0 982 389" fill="none" xmlns="http://www.w3.org/2000/svg">
<g clip-path="url(#clip0)">
<circle opacity="0.4" cx="-36" cy="108" r="110" fill="#DE9271"/>
<circle opacity="0.4" cx="945" cy="7" r="20" fill="#DE9271"/>
<circle opacity="0.4" cx="945" cy="312" r="75" fill="#ACD9E3"/>
<path opacity="0.4" d="M849.143 56.379H836.286V43.7962C836.286 42.2522 835.006 41 833.429 41H830.571C828.994 41 827.714 42.2522 827.714 43.7962V56.379H814.857C813.279 56.379 812 57.6312 812 59.1752V61.9714C812 63.5154 813.279 64.7676 814.857 64.7676H827.714V77.3505C827.714 78.8945 828.994 80.1467 830.571 80.1467H833.429C835.006 80.1467 836.286 78.8945 836.286 77.3505V64.7676H849.143C850.721 64.7676 852 63.5154 852 61.9714V59.1752C852 57.6312 850.721 56.379 849.143 56.379Z" fill="#ACD9E3"/>
<path opacity="0.4" d="M69.1429 246.845H56.2857V234.262C56.2857 232.718 55.0063 231.466 53.4286 231.466H50.5714C48.9937 231.466 47.7143 232.718 47.7143 234.262V246.845H34.8571C33.2795 246.845 32 248.097 32 249.641V252.437C32 253.981 33.2795 255.233 34.8571 255.233H47.7143V267.816C47.7143 269.36 48.9937 270.612 50.5714 270.612H53.4286C55.0063 270.612 56.2857 269.36 56.2857 267.816V255.233H69.1429C70.7205 255.233 72 253.981 72 252.437V249.641C72 248.097 70.7205 246.845 69.1429 246.845Z" fill="#ACD9E3"/>
<path opacity="0.4" d="M228.714 21.0686H209.429V2.19429C209.429 -0.121746 207.509 -2 205.143 -2H200.857C198.491 -2 196.571 -0.121746 196.571 2.19429V21.0686H177.286C174.919 21.0686 173 22.9468 173 25.2629V29.4571C173 31.7732 174.919 33.6514 177.286 33.6514H196.571V52.5257C196.571 54.8417 198.491 56.72 200.857 56.72H205.143C207.509 56.72 209.429 54.8417 209.429 52.5257V33.6514H228.714C231.081 33.6514 233 31.7732 233 29.4571V25.2629C233 22.9468 231.081 21.0686 228.714 21.0686Z" fill="#ACD9E3"/>
<path opacity="0.4" d="M141.143 57.1699H106.857C105.279 57.1699 104 58.4221 104 59.9661V62.7623C104 64.3063 105.279 65.5585 106.857 65.5585H141.143C142.721 65.5585 144 64.3063 144 62.7623V59.9661C144 58.4221 142.721 57.1699 141.143 57.1699Z" fill="#DE9271"/>
<path opacity="0.4" d="M950.714 178H899.286C896.919 178 895 179.878 895 182.194V186.389C895 188.705 896.919 190.583 899.286 190.583H950.714C953.081 190.583 955 188.705 955 186.389V182.194C955 179.878 953.081 178 950.714 178Z" fill="#DE9271"/>
</g>
<defs>
<clipPath id="clip0">
<rect width="982" height="389" fill="white"/>
</clipPath>
</defs>
</svg>
