<svg width="90" height="39" viewBox="0 0 90 39" fill="none" xmlns="http://www.w3.org/2000/svg">
<path d="M8.17966 29.5195C7.1021 29.5195 6.09542 29.3503 5.15964 29.0117C4.25222 28.6449 3.45822 28.1511 2.77765 27.5304C2.12544 26.9097 1.60084 26.1761 1.20384 25.3297C0.835199 24.4832 0.650879 23.5663 0.650879 22.5787C0.650879 21.5348 0.877735 20.5896 1.33145 19.7432C1.78516 18.8967 2.42319 18.1632 3.24554 17.5424C4.09625 16.9217 5.08875 16.4421 6.22303 16.1035C7.38566 15.7649 8.66173 15.5956 10.0512 15.5956C11.1004 15.5956 12.1355 15.6944 13.1563 15.8919C14.1772 16.0612 15.0988 16.301 15.9211 16.6114V15.0878C15.9211 13.4513 15.4532 12.1817 14.5174 11.2788C13.5817 10.3477 12.2347 9.88217 10.4766 9.88217C9.28558 9.88217 8.10877 10.1079 6.94613 10.5593C5.81185 10.9825 4.63504 11.6033 3.41569 12.4215L1.96948 9.45895C4.83354 7.54035 7.81102 6.58105 10.9019 6.58105C13.9645 6.58105 16.3465 7.35696 18.0479 8.90876C19.7493 10.4606 20.6 12.6895 20.6 15.5956V23.5945C20.6 24.582 21.0112 25.0899 21.8336 25.1181V29.0963C21.3798 29.181 20.9828 29.2374 20.6426 29.2656C20.3306 29.2938 20.0187 29.3079 19.7068 29.3079C18.7994 29.3079 18.0904 29.0822 17.58 28.6308C17.0979 28.1794 16.8002 27.601 16.6868 26.8956L16.5592 25.499C15.5667 26.7968 14.3331 27.7985 12.8586 28.5038C11.4124 29.181 9.85272 29.5195 8.17966 29.5195ZM9.45572 26.0915C10.59 26.0915 11.6534 25.894 12.6459 25.499C13.6667 25.0757 14.4607 24.4973 15.0279 23.7638C15.6234 23.2559 15.9211 22.7198 15.9211 22.1555V19.2353C15.1271 18.925 14.2764 18.6851 13.369 18.5158C12.4899 18.3466 11.625 18.2619 10.7743 18.2619C9.10126 18.2619 7.72595 18.6287 6.64838 19.3623C5.59917 20.0676 5.07457 21.0128 5.07457 22.1978C5.07457 23.2982 5.48575 24.2293 6.3081 24.9911C7.13045 25.7247 8.17966 26.0915 9.45572 26.0915Z" fill="#5B5B5B"/>
<path d="M38.782 10.9825C36.9671 11.039 35.3508 11.4622 33.9329 12.2522C32.5434 13.014 31.5509 14.1144 30.9554 15.5533V29.0963H26.2765V6.96195H30.6151V11.9136C31.3808 10.39 32.3733 9.1768 33.5926 8.27393C34.8403 7.34285 36.1731 6.83499 37.591 6.75034C37.8745 6.75034 38.1014 6.75034 38.2715 6.75034C38.47 6.75034 38.6402 6.76445 38.782 6.79267V10.9825Z" fill="#5B5B5B"/>
<path d="M49.8691 29.3079C48.3662 29.3079 46.9909 29.0117 45.7432 28.4192C44.4954 27.7985 43.4179 26.9661 42.5105 25.9222C41.6314 24.8782 40.9366 23.6791 40.4262 22.3248C39.9441 20.9705 39.7031 19.5457 39.7031 18.0503C39.7031 16.4703 39.9583 14.989 40.4688 13.6065C40.9792 12.1958 41.6881 10.9825 42.5955 9.96681C43.503 8.92287 44.5805 8.10465 45.8282 7.51214C47.1043 6.89142 48.508 6.58105 50.0392 6.58105C51.8257 6.58105 53.3854 7.00428 54.7181 7.85072C56.0793 8.69715 57.1994 9.79752 58.0784 11.1518V6.96195H62.2044V28.4615C62.2044 30.0697 61.9066 31.4946 61.3111 32.736C60.7156 33.9775 59.8791 35.0214 58.8015 35.8678C57.7523 36.7425 56.5046 37.4055 55.0584 37.857C53.6122 38.3084 52.0526 38.5341 50.3795 38.5341C47.9125 38.5341 45.8566 38.1109 44.2119 37.2645C42.5955 36.4462 41.2344 35.2894 40.1285 33.7941L42.7657 31.3394C43.6164 32.5244 44.7081 33.4273 46.0409 34.048C47.402 34.6687 48.8482 34.9791 50.3795 34.9791C51.3437 34.9791 52.2511 34.8521 53.1018 34.5982C53.9809 34.3442 54.7465 33.9492 55.3987 33.4132C56.0509 32.8771 56.5613 32.1999 56.93 31.3817C57.327 30.5635 57.5255 29.5901 57.5255 28.4615V25.0757C56.7315 26.43 55.6397 27.474 54.2503 28.2076C52.8608 28.9411 51.4004 29.3079 49.8691 29.3079ZM51.4004 25.5413C52.1093 25.5413 52.7899 25.4284 53.4421 25.2027C54.0943 24.9488 54.6898 24.6243 55.2286 24.2293C55.7957 23.8061 56.2778 23.3405 56.6748 22.8327C57.0718 22.2966 57.3553 21.7323 57.5255 21.1398V15.3417C57.2419 14.6363 56.8733 14.0015 56.4196 13.4372C55.9658 12.8447 55.4412 12.3368 54.8457 11.9136C54.2786 11.4904 53.6689 11.1659 53.0167 10.9402C52.3645 10.6863 51.7123 10.5593 51.0601 10.5593C50.0392 10.5593 49.1176 10.785 48.2953 11.2365C47.5013 11.6597 46.8207 12.2381 46.2536 12.9717C45.6864 13.677 45.2469 14.4812 44.935 15.384C44.6231 16.2869 44.4671 17.218 44.4671 18.1773C44.4671 19.193 44.6372 20.1523 44.9775 21.0552C45.3462 21.9298 45.8424 22.7057 46.4663 23.3829C47.0901 24.0318 47.8132 24.5538 48.6356 24.9488C49.4863 25.3438 50.4079 25.5413 51.4004 25.5413Z" fill="#5B5B5B"/>
<path d="M74.6633 29.5195C72.338 29.5195 70.5799 28.7719 69.3889 27.2765C68.1979 25.7529 67.6024 23.4957 67.6024 20.505V6.96195H72.2813V19.5739C72.2813 23.5522 73.6992 25.5413 76.5349 25.5413C77.8676 25.5413 79.1295 25.1322 80.3205 24.3139C81.5115 23.4957 82.4331 22.3107 83.0853 20.7589V6.96195H87.7642V23.5945C87.7642 24.1306 87.8493 24.5115 88.0194 24.7372C88.2179 24.9629 88.5582 25.0899 89.0403 25.1181V29.0963C88.5582 29.181 88.1612 29.2374 87.8493 29.2656C87.5374 29.2938 87.2396 29.3079 86.956 29.3079C86.1053 29.3079 85.3822 29.0822 84.7867 28.6308C84.1912 28.1511 83.8793 27.5445 83.851 26.8109L83.7659 24.6102C82.7734 26.2184 81.4832 27.4458 79.8952 28.2922C78.3072 29.1104 76.5632 29.5195 74.6633 29.5195Z" fill="#5B5B5B"/>
<path d="M0 33.3286H37.7502V37.0318H0V33.3286Z" fill="#4F936C"/>
<path d="M63.8032 33.3286H89.8562V37.0318H63.8032V33.3286Z" fill="#AC5858"/>
<path d="M0 0H89.8562V3.70317H0V0Z" fill="#5C7098"/>
</svg>
